<?xml version="1.0" encoding="UTF-8" standalone="no"?>
<!-- Created with Inkscape (http://www.inkscape.org/) -->

<svg
   xmlns:dc="http://purl.org/dc/elements/1.1/"
   xmlns:cc="http://creativecommons.org/ns#"
   xmlns:rdf="http://www.w3.org/1999/02/22-rdf-syntax-ns#"
   xmlns:svg="http://www.w3.org/2000/svg"
   xmlns="http://www.w3.org/2000/svg"
   xmlns:xlink="http://www.w3.org/1999/xlink"
   xmlns:sodipodi="http://sodipodi.sourceforge.net/DTD/sodipodi-0.dtd"
   xmlns:inkscape="http://www.inkscape.org/namespaces/inkscape"
   width="200"
   height="200"
   id="svg4063"
   version="1.1"
   inkscape:version="0.47pre4 r22446"
   sodipodi:docname="New document 6">
  <defs
     id="defs4065">
    <linearGradient
       inkscape:collect="always"
       id="linearGradient5245">
      <stop
         style="stop-color:#abc837;stop-opacity:1"
         offset="0"
         id="stop5247" />
      <stop
         style="stop-color:#aaeeff;stop-opacity:1"
         offset="1"
         id="stop5249" />
    </linearGradient>
    <inkscape:path-effect
       effect="spiro"
       id="path-effect4895"
       is_visible="true" />
    <inkscape:path-effect
       effect="spiro"
       id="path-effect4885"
       is_visible="true" />
    <inkscape:path-effect
       effect="spiro"
       id="path-effect4868"
       is_visible="true" />
    <inkscape:path-effect
       effect="spiro"
       id="path-effect4081"
       is_visible="true" />
    <inkscape:perspective
       sodipodi:type="inkscape:persp3d"
       inkscape:vp_x="0 : 526.18109 : 1"
       inkscape:vp_y="0 : 1000 : 0"
       inkscape:vp_z="744.09448 : 526.18109 : 1"
       inkscape:persp3d-origin="372.04724 : 350.78739 : 1"
       id="perspective4071" />
    <inkscape:perspective
       sodipodi:type="inkscape:persp3d"
       inkscape:vp_x="0 : 0.5 : 1"
       inkscape:vp_y="0 : 1000 : 0"
       inkscape:vp_z="1 : 0.5 : 1"
       inkscape:persp3d-origin="0.5 : 0.33333333 : 1"
       id="perspective3937" />
    <inkscape:perspective
       id="perspective3977"
       inkscape:persp3d-origin="372.04724 : 350.78739 : 1"
       inkscape:vp_z="744.09448 : 526.18109 : 1"
       inkscape:vp_y="0 : 1000 : 0"
       inkscape:vp_x="0 : 526.18109 : 1"
       sodipodi:type="inkscape:persp3d" />
    <filter
       inkscape:collect="always"
       id="filter5239"
       color-interpolation-filters="sRGB">
      <feGaussianBlur
         inkscape:collect="always"
         stdDeviation="0.764925"
         id="feGaussianBlur5241" />
    </filter>
    <linearGradient
       inkscape:collect="always"
       xlink:href="#linearGradient5245"
       id="linearGradient5251"
       x1="230.71426"
       y1="412.17383"
       x2="230.71426"
       y2="226.12199"
       gradientUnits="userSpaceOnUse"
       gradientTransform="matrix(1.0144927,0,0,1.1067194,0.87640699,-25.259445)" />
  </defs>
  <sodipodi:namedview
     id="base"
     pagecolor="#ffffff"
     bordercolor="#666666"
     borderopacity="1.0"
     inkscape:pageopacity="0.0"
     inkscape:pageshadow="2"
     inkscape:zoom="1.979899"
     inkscape:cx="130.92241"
     inkscape:cy="111.20435"
     inkscape:document-units="px"
     inkscape:current-layer="layer1"
     showgrid="false"
     inkscape:window-width="1114"
     inkscape:window-height="831"
     inkscape:window-x="207"
     inkscape:window-y="50"
     inkscape:window-maximized="0" />
  <metadata
     id="metadata4068">
    <rdf:RDF>
      <cc:Work
         rdf:about="">
        <dc:format>image/svg+xml</dc:format>
        <dc:type
           rdf:resource="http://purl.org/dc/dcmitype/StillImage" />
        <dc:title></dc:title>
      </cc:Work>
    </rdf:RDF>
  </metadata>
  <g
     inkscape:label="Layer 1"
     inkscape:groupmode="layer"
     id="layer1"
     transform="translate(-134.93436,-227.94775)">
    <rect
       style="opacity:0.98000004;fill:url(#linearGradient5251);fill-opacity:1;stroke:none"
       id="rect5243"
       width="200"
       height="200"
       x="134.93436"
       y="227.94775" />
    <text
       id="text5235"
       y="366.64792"
       x="187.85715"
       style="font-size:40px;font-style:normal;font-variant:normal;font-weight:normal;font-stretch:normal;text-align:start;text-anchor:start;opacity:0.98000004;fill:#333333;fill-opacity:1;stroke:#333333;stroke-width:0.81176829;filter:url(#filter5239);font-family:Handwriting -Dakota;-inkscape-font-specification:Handwriting -Dakota"
       xml:space="preserve"
       transform="matrix(1.2313824,0,0,1.232375,-71.607769,-86.072583)"><tspan
         style="font-style:normal;font-variant:normal;font-weight:normal;font-stretch:normal;fill:#333333;stroke:#333333;stroke-width:0.65896773;font-family:Marker Felt;-inkscape-font-specification:Marker Felt"
         y="366.64792"
         x="187.85715"
         id="tspan5237"
         sodipodi:role="line">mounds</tspan></text>
    <text
       xml:space="preserve"
       style="font-size:49.27514267px;font-style:normal;font-variant:normal;font-weight:normal;font-stretch:normal;text-align:start;text-anchor:start;fill:#504416;fill-opacity:1;stroke:#e3e2db;stroke-width:1;font-family:Handwriting -Dakota;-inkscape-font-specification:Handwriting -Dakota"
       x="159.78058"
       y="365.62781"
       id="text4073"
       transform="scale(0.9995972,1.000403)"><tspan
         sodipodi:role="line"
         id="tspan4075"
         x="159.78058"
         y="365.62781"
         style="font-style:normal;font-variant:normal;font-weight:normal;font-stretch:normal;fill:#504416;stroke:#e3e2db;stroke-width:0.81176823;font-family:Marker Felt;-inkscape-font-specification:Marker Felt">mounds</tspan></text>
    <g
       id="g5147"
       transform="matrix(0.64834218,-0.08999286,0.0857266,0.62991846,79.445521,48.056467)">
      <path
         d="m 197.39644,467.86746 c 0,0 -0.12477,-0.23637 -0.34427,-0.66959 -2.10951,-4.06606 -13.35021,-25.43218 -16.377,-23.69928 -3.34795,1.91796 -19.35988,36.7817 -19.35988,36.7817 0,0 -5.49212,-2.61297 -5.72779,-0.69963 -0.23337,1.90457 2.38677,2.85835 5.25875,2.61575 2.86505,-0.23568 20.06228,-33.92058 20.54056,-36.06683 0.47828,-2.15433 12.18802,21.97517 16.00963,21.73788"
         style="fill:#431b1e;fill-opacity:1;fill-rule:nonzero;stroke:none"
         id="path142" />
      <path
         d="m 169.90582,470.00747 c 0,0 -14.59328,-1.71118 -7.72409,-18.02672 6.86688,-16.32431 14.02027,-22.05649 28.0567,-20.61865 14.0295,1.43044 25.19396,26.04931 10.30725,35.78609 -14.89133,9.73563 -30.63986,2.85928 -30.63986,2.85928"
         style="fill:#8b725e;fill-opacity:1;fill-rule:nonzero;stroke:none"
         id="path144" />
      <path
         d="m 176.80735,468.41621 c 0,0 -14.60251,-1.71025 -7.73101,-18.03295 4.37613,-10.40175 8.8701,-16.49576 15.18939,-19.17736 -10.39505,0.61368 -16.48098,6.8216 -22.35433,20.77485 -6.86919,16.31554 7.73333,18.02672 7.73333,18.02672 0,0 11.22221,4.90085 23.67825,0.56862 -9.29293,1.00184 -16.51563,-2.15988 -16.51563,-2.15988"
         style="fill:#6e5846;fill-opacity:1;fill-rule:nonzero;stroke:none"
         id="path146" />
      <path
         d="m 213.91206,482.93092 c 0,0 -1.34934,-5.5344 -3.1631,-12.64365 l -1.83456,0.2634 c 2.3706,7.96507 4.57022,14.52211 5.30034,14.63209 1.79528,0.2872 3.43806,-0.84565 3.29943,-3.10373 -0.1548,-2.26639 -3.60211,0.85189 -3.60211,0.85189"
         style="fill:#431b1e;fill-opacity:1;fill-rule:nonzero;stroke:none"
         id="path148" />
      <path
         d="m 224.36257,470.24106 c 0,0 0.0855,-0.21557 0.24491,-0.59288 1.52033,-3.68228 9.64413,-22.99249 11.83682,-21.42203 2.40525,1.72851 13.96943,33.24822 13.96943,33.24822 0,0 3.96948,-2.381 4.13584,-0.65434 0.1756,1.7255 -1.71903,2.58478 -3.79157,2.37984 -2.07023,-0.22274 -14.49392,-30.65327 -14.84281,-32.60173 -0.34658,-1.94778 -8.79386,19.86427 -11.55262,19.64292"
         style="fill:#431b1e;fill-opacity:1;fill-rule:nonzero;stroke:none"
         id="path150" />
      <path
         d="m 222.86997,451.11893 c 0,0 -11.16446,-5.43967 -19.17967,3.14532 -8.01983,8.58775 3.43806,19.18359 12.89273,18.32176 9.4408,-0.8512 14.30677,-6.00921 14.30677,-6.00921 l -8.01983,-15.45787"
         style="fill:#8b725e;fill-opacity:1;fill-rule:nonzero;stroke:none"
         id="path152" />
      <path
         d="m 207.13761,452.67576 c 0.82947,-0.88447 1.69361,-1.61552 2.56237,-2.22919 -2.13724,0.70563 -4.29989,1.96302 -6.28001,4.08847 -8.00828,8.58776 3.44037,19.18174 12.89273,18.31899 5.03925,-0.4621 8.76382,-2.13908 11.15521,-3.60742 -2.04019,0.80776 -4.5217,1.48289 -7.43758,1.75369 -9.45697,0.85189 -20.90562,-9.74117 -12.89272,-18.32454"
         style="fill:#6e5846;fill-opacity:1;fill-rule:nonzero;stroke:none"
         id="path154" />
      <path
         d="m 241.19705,472.58601 c 3.59979,0.0739 6.82991,-0.005 9.72961,-0.23013 20.34186,-1.47296 24.55164,-9.4244 24.05487,-18.95184 -0.57763,-10.87564 -16.88993,-36.35356 -38.36625,-28.34182 -5.36273,2.00554 -9.02029,5.28001 -11.481,9.06627 -1.22227,1.88631 -2.14648,3.90987 -2.85119,5.963 -3.93482,11.48146 -2.1534,28.06039 12.10715,31.54513 1.95933,0.55868 4.22826,0.90595 6.80681,0.94939"
         style="fill:#8b725e;fill-opacity:1;fill-rule:nonzero;stroke:none"
         id="path156" />
      <path
         d="m 247.03574,469.67082 c -2.58085,-0.0543 -4.84748,-0.4018 -6.81836,-0.95401 -14.26055,-3.48035 -16.03041,-20.06645 -12.10021,-31.5449 0.70009,-2.05244 1.63123,-4.06791 2.85812,-5.96601 1.4487,-2.21925 3.30174,-4.26453 5.67695,-5.98564 -0.10397,0.0317 -0.20332,0.0677 -0.30267,0.10836 -5.36966,2.00531 -9.01567,5.27724 -11.47407,9.05703 -1.23382,1.89809 -2.15572,3.91703 -2.85118,5.97039 -3.94176,11.47592 -2.16497,28.06017 12.09328,31.5486 1.96395,0.55221 4.23519,0.90249 6.81143,0.94939 3.59979,0.0633 6.83684,-0.0171 9.73655,-0.22551 9.17047,-0.67421 15.05306,-2.66264 18.71293,-5.50574 -3.28094,1.13724 -7.4214,1.94499 -12.61315,2.31607 -2.90664,0.22111 -6.14137,0.29228 -9.72962,0.23197"
         style="fill:#6e5846;fill-opacity:1;fill-rule:nonzero;stroke:none"
         id="path158" />
      <path
         d="m 251.2201,425.10912 0,0 c 0.067,-0.26987 6.76984,-27.57449 12.69864,-29.84897 l -0.21719,-0.55499 c -6.21531,2.38539 -12.78413,29.12971 -13.06139,30.27134 l 0.57994,0.13262"
         style="fill:#451a11;fill-opacity:1;fill-rule:nonzero;stroke:none"
         id="path160" />
      <path
         d="m 263.24176,394.99837 c 0,0 -1.72134,-3.72018 8.59053,-1.71302 0,0 1.43252,7.72847 -6.58731,3.14531 l -2.00322,-1.43229"
         style="fill:#451a11;fill-opacity:1;fill-rule:nonzero;stroke:none"
         id="path162" />
      <path
         d="m 253.19098,425.38546 0,0 c 0.14556,-0.24468 13.6783,-24.89058 20.00452,-25.55671 l -0.0578,-0.58387 c -6.63352,0.69224 -19.89593,24.83375 -20.46201,25.85523 l 0.51525,0.28535"
         style="fill:#451a11;fill-opacity:1;fill-rule:nonzero;stroke:none"
         id="path164" />
      <path
         d="m 264.32771,393.68068 1.93159,1.16889 c 2.63631,1.25439 4.23751,1.35097 5.19868,0.90688 0.0762,-1.12638 -0.20332,-2.17328 -0.20332,-2.17328 -3.57669,-0.42144 -5.69313,-0.27703 -6.92695,0.0975"
         style="fill:#764c46;fill-opacity:1;fill-rule:nonzero;stroke:none"
         id="path166" />
      <path
         d="m 271.48571,400.28023 c 0,0 -1.70979,-3.72041 8.59284,-1.71672 0,0 1.43022,7.73032 -6.58037,3.15155 l -2.01247,-1.43483"
         style="fill:#451a11;fill-opacity:1;fill-rule:nonzero;stroke:none"
         id="path168" />
      <path
         d="m 272.57628,398.95607 1.92929,1.1779 c 2.63399,1.25623 4.24674,1.3475 5.19868,0.89626 0.0739,-1.11737 -0.19871,-2.16266 -0.19871,-2.16266 -3.57669,-0.42144 -5.69544,-0.28142 -6.92926,0.0885"
         style="fill:#764c46;fill-opacity:1;fill-rule:nonzero;stroke:none"
         id="path170" />
      <path
         d="m 264.32771,393.68068 -0.16636,0.2798 1.93622,1.17953 0.0185,0.006 c 1.756,0.83664 3.073,1.17051 4.09656,1.17952 0.54298,0 0.99353,-0.0991 1.3817,-0.2798 l 0.16635,-0.0811 0.0185,-0.19408 c 0.007,-0.14903 0.0185,-0.29344 0.0185,-0.43947 0,-0.99098 -0.2195,-1.81514 -0.2195,-1.82762 l -0.0578,-0.21765 -0.22874,-0.0289 c -1.53419,-0.17607 -2.80729,-0.25278 -3.85858,-0.25278 -1.42559,0 -2.44915,0.13355 -3.19545,0.36738 l -0.70471,0.20309 0.62846,0.38632 0.16636,-0.2798 0.0947,0.30684 c 0.66312,-0.19409 1.63354,-0.33388 3.01061,-0.33388 1.02125,0 2.27356,0.0739 3.78464,0.25278 l 0.037,-0.32325 -0.31423,0.0857 0.009,0.0326 c 0.0393,0.14626 0.19408,0.84565 0.19408,1.62915 0,0.12985 0,0.25901 -0.0139,0.3988 l 0.32809,0.027 -0.14094,-0.30221 c -0.28419,0.13077 -0.64463,0.21464 -1.10443,0.21464 -0.87569,0.0109 -2.11644,-0.30036 -3.81236,-1.10997 l -0.14095,0.29066 0.16867,-0.27541 -1.92697,-1.17329 -0.17329,0.27981 0.0947,0.30684 -0.0947,-0.30684"
         style="fill:#451a11;fill-opacity:1;fill-rule:nonzero;stroke:none"
         id="path172" />
      <path
         d="m 213.36678,470.6997 c 0,0 0.10859,-0.21673 0.30961,-0.61206 1.9316,-3.76361 12.22267,-23.54471 15.00224,-21.93635 3.04989,1.75808 17.70554,34.05413 17.70554,34.05413 0,0 5.02077,-2.44408 5.23565,-0.67237 0.22181,1.77795 -2.17882,2.65965 -4.80358,2.44038 -2.62244,-0.22551 -18.35943,-31.40419 -18.80074,-33.39147 -0.43899,-1.99467 -11.14828,20.34163 -14.64872,20.11774"
         style="fill:#431b1e;fill-opacity:1;fill-rule:nonzero;stroke:none"
         id="path174" />
      <path
         d="m 207.47494,469.37115 c 0,0 0.0716,-0.29159 0.20795,-0.78974 1.32393,-4.8223 8.38027,-30.10729 10.28183,-28.06294 2.09796,2.26709 12.13488,43.55246 12.13488,43.55246 0,0 3.44961,-3.1065 3.60211,-0.84842 0.14787,2.26085 -1.50416,3.39809 -3.29481,3.1065 -1.79759,-0.27703 -12.59236,-40.14883 -12.89273,-42.69849 -0.30268,-2.54343 -7.64321,26.01766 -10.03923,25.74063"
         style="fill:#431b1e;fill-opacity:1;fill-rule:nonzero;stroke:none"
         id="path176" />
      <path
         d="m 263.84943,443.08339 c 0,7.1104 -5.75783,12.87493 -12.88349,12.87493 -7.10948,0 -12.86962,-5.76453 -12.86962,-12.87493 0,-7.11549 5.76014,-12.88279 12.86962,-12.88279 7.12566,0 12.88349,5.7673 12.88349,12.88279"
         style="fill:#ffffff;fill-opacity:1;fill-rule:nonzero;stroke:none"
         id="path178" />
      <path
         d="m 251.22703,451.93108 c -6.79063,0 -12.32664,-4.86643 -12.60853,-10.97037 -0.34196,1.05152 -0.52218,2.15086 -0.52218,3.29873 0,6.32252 5.64461,11.43525 12.61316,11.43525 6.97085,0 12.62008,-5.11273 12.62008,-11.43525 0,-0.15965 0,-0.32486 -0.0139,-0.48105 -1.56192,4.71578 -6.37474,8.15269 -12.08867,8.15269"
         style="fill:#edf2f7;fill-opacity:1;fill-rule:nonzero;stroke:none"
         id="path180" />
      <path
         d="m 257.69419,441.55913 c 0,4.81236 -3.90941,8.72501 -8.72223,8.72501 -4.81975,0 -8.71992,-3.91265 -8.71992,-8.72501 0,-4.82414 3.90017,-8.7213 8.71992,-8.7213 4.81282,0 8.72223,3.89716 8.72223,8.7213"
         style="fill:#451a11;fill-opacity:1;fill-rule:nonzero;stroke:none"
         id="path182" />
      <path
         d="m 257.69419,441.55913 -0.32347,0 c 0,2.31954 -0.94501,4.41079 -2.46071,5.93874 -1.52495,1.51548 -3.61366,2.45679 -5.93805,2.45679 -2.32208,0 -4.41772,-0.94131 -5.93343,-2.45679 -1.53187,-1.52795 -2.46533,-3.6192 -2.46533,-5.93874 0,-2.32693 0.93346,-4.42072 2.46533,-5.94151 1.51571,-1.52079 3.61135,-2.4577 5.93343,-2.4577 2.32439,0 4.4131,0.93691 5.93805,2.4577 1.5157,1.52079 2.46071,3.61458 2.46071,5.94151 l 0.65157,0 c 0,-5.00297 -4.05035,-9.05078 -9.05033,-9.05078 -4.99997,0 -9.04801,4.04781 -9.04801,9.05078 0,4.99559 4.04804,9.04085 9.04801,9.04085 4.99998,0 9.05033,-4.04526 9.05033,-9.04085 l -0.3281,0"
         style="fill:#451a11;fill-opacity:1;fill-rule:nonzero;stroke:none"
         id="path184" />
      <path
         d="m 249.91003,439.4353 c 0,2.10027 -1.69823,3.80428 -3.80312,3.80428 -2.10027,0 -3.80543,-1.70401 -3.80543,-3.80428 0,-2.10743 1.70516,-3.8059 3.80543,-3.8059 2.10489,0 3.80312,1.69847 3.80312,3.8059"
         style="fill:#764c46;fill-opacity:1;fill-rule:nonzero;stroke:none"
         id="path186" />
      <path
         d="m 249.91003,439.4353 -0.32578,0 c 0,0.95402 -0.38586,1.82323 -1.02356,2.45955 -0.62615,0.62269 -1.4926,1.01363 -2.45378,1.01363 -0.95656,0 -1.82762,-0.39094 -2.4584,-1.01363 -0.62846,-0.63632 -1.01663,-1.50553 -1.01663,-2.45955 0,-0.96118 0.38817,-1.82763 1.01663,-2.46579 0.63078,-0.62708 1.50184,-1.0134 2.4584,-1.0134 0.96118,0 1.82763,0.38632 2.45378,1.0134 0.6377,0.63816 1.02356,1.50461 1.02356,2.46579 l 0.65619,0 c 0,-2.28788 -1.85535,-4.13815 -4.13353,-4.13815 -2.28511,0 -4.1266,1.85027 -4.1266,4.13815 0,2.28349 1.84149,4.13099 4.1266,4.13099 2.27818,0 4.13353,-1.8475 4.13353,-4.13099 l -0.33041,0"
         style="fill:#451a11;fill-opacity:1;fill-rule:nonzero;stroke:none"
         id="path188" />
      <path
         d="m 247.29452,438.80822 c 0,1.10374 -0.88493,1.99445 -1.98705,1.99445 -1.09057,0 -1.98474,-0.89071 -1.98474,-1.99445 0,-1.09218 0.89417,-1.98843 1.98474,-1.98843 1.10212,0 1.98705,0.89625 1.98705,1.98843"
         style="fill:#ffffff;fill-opacity:1;fill-rule:nonzero;stroke:none"
         id="path190" />
      <path
         d="m 207.41487,469.43885 c 0,0 -0.14325,-0.28535 -0.41127,-0.79529 -2.52772,-4.88445 -16.00501,-30.48067 -19.6256,-28.40951 -4.02031,2.29435 -23.19304,44.10121 -23.19304,44.10121 0,0 -6.59193,-3.14786 -6.88074,-0.86645 -0.28189,2.29158 2.86967,3.43783 6.3008,3.15179 3.44037,-0.29159 24.04793,-40.65807 24.62557,-43.23477 0.57069,-2.5723 14.60482,26.33906 19.18428,26.05302"
         style="fill:#431b1e;fill-opacity:1;fill-rule:nonzero;stroke:none"
         id="path192" />
    </g>
  </g>
</svg>
