<?xml version="1.0" encoding="UTF-8" standalone="no"?>
<!-- Created with Inkscape (http://www.inkscape.org/) -->

<svg
   xmlns:dc="http://purl.org/dc/elements/1.1/"
   xmlns:cc="http://creativecommons.org/ns#"
   xmlns:rdf="http://www.w3.org/1999/02/22-rdf-syntax-ns#"
   xmlns:svg="http://www.w3.org/2000/svg"
   xmlns="http://www.w3.org/2000/svg"
   xmlns:sodipodi="http://sodipodi.sourceforge.net/DTD/sodipodi-0.dtd"
   xmlns:inkscape="http://www.inkscape.org/namespaces/inkscape"
   width="600"
   height="120"
   id="svg2"
   version="1.1"
   inkscape:version="0.47pre4 r22446"
   sodipodi:docname="moundz_design_01.svg"
   inkscape:export-filename="/development/projects/websites/moundz/designs/moundz_design_header.png"
   inkscape:export-xdpi="90"
   inkscape:export-ydpi="90">
  <defs
     id="defs4">
    <inkscape:path-effect
       effect="spiro"
       id="path-effect4296"
       is_visible="true" />
    <inkscape:perspective
       sodipodi:type="inkscape:persp3d"
       inkscape:vp_x="0 : 526.18109 : 1"
       inkscape:vp_y="0 : 1000 : 0"
       inkscape:vp_z="744.09448 : 526.18109 : 1"
       inkscape:persp3d-origin="372.04724 : 350.78739 : 1"
       id="perspective10" />
    <inkscape:perspective
       sodipodi:type="inkscape:persp3d"
       inkscape:vp_x="0 : 526.18109 : 1"
       inkscape:vp_y="0 : 1000 : 0"
       inkscape:vp_z="744.09448 : 526.18109 : 1"
       inkscape:persp3d-origin="372.04724 : 350.78739 : 1"
       id="perspective3977" />
    <inkscape:perspective
       id="perspective3937"
       inkscape:persp3d-origin="0.5 : 0.33333333 : 1"
       inkscape:vp_z="1 : 0.5 : 1"
       inkscape:vp_y="0 : 1000 : 0"
       inkscape:vp_x="0 : 0.5 : 1"
       sodipodi:type="inkscape:persp3d" />
    <inkscape:perspective
       id="perspective4071"
       inkscape:persp3d-origin="372.04724 : 350.78739 : 1"
       inkscape:vp_z="744.09448 : 526.18109 : 1"
       inkscape:vp_y="0 : 1000 : 0"
       inkscape:vp_x="0 : 526.18109 : 1"
       sodipodi:type="inkscape:persp3d" />
    <inkscape:path-effect
       is_visible="true"
       id="path-effect4081"
       effect="spiro" />
    <inkscape:path-effect
       is_visible="true"
       id="path-effect4868"
       effect="spiro" />
    <inkscape:path-effect
       is_visible="true"
       id="path-effect4885"
       effect="spiro" />
    <inkscape:path-effect
       is_visible="true"
       id="path-effect4895"
       effect="spiro" />
    <filter
       inkscape:collect="always"
       id="filter4386"
       color-interpolation-filters="sRGB">
      <feGaussianBlur
         inkscape:collect="always"
         stdDeviation="0.61388011"
         id="feGaussianBlur4388" />
    </filter>
  </defs>
  <sodipodi:namedview
     id="base"
     pagecolor="#ffffff"
     bordercolor="#666666"
     borderopacity="1.0"
     inkscape:pageopacity="0.0"
     inkscape:pageshadow="2"
     inkscape:zoom="1.4142136"
     inkscape:cx="253.52599"
     inkscape:cy="55.256548"
     inkscape:document-units="px"
     inkscape:current-layer="layer3"
     showgrid="false"
     inkscape:window-width="933"
     inkscape:window-height="833"
     inkscape:window-x="236"
     inkscape:window-y="43"
     inkscape:window-maximized="0" />
  <metadata
     id="metadata7">
    <rdf:RDF>
      <cc:Work
         rdf:about="">
        <dc:format>image/svg+xml</dc:format>
        <dc:type
           rdf:resource="http://purl.org/dc/dcmitype/StillImage" />
        <dc:title></dc:title>
      </cc:Work>
    </rdf:RDF>
  </metadata>
  <g
     inkscape:groupmode="layer"
     id="layer3"
     inkscape:label="background"
     style="display:inline">
    <rect
       inkscape:label="#rect3305"
       y="6.3891854"
       x="0"
       height="113"
       width="298"
       id="rect4082"
       style="fill:#c87137;fill-opacity:1;stroke:none;display:inline" />
  </g>
  <g
     inkscape:label="Layer 1"
     inkscape:groupmode="layer"
     id="layer1"
     transform="translate(-88.90625,-184.87499)"
     style="display:inline">
    <rect
       style="fill:#e3f4d7;fill-opacity:1;stroke:none"
       id="rect5256"
       width="300"
       height="31"
       x="88.90625"
       y="191.26418" />
    <path
       style="fill:#e3f4d7;fill-opacity:1;stroke:none"
       d="m 88.90625,212.125 0,92.75 8.25,0 c 1.277509,-0.15944 2.555893,-0.41326 3.8125,-0.65625 1.14009,-0.22046 3.59311,-0.76512 5.40625,-1.15625 0.65376,-0.45734 1.33147,-0.88875 2.03125,-1.28125 9.2787,-3.39146 18.40327,-7.30779 27.1875,-11.875 1.04852,-0.70537 2.09246,-1.42797 3.125,-2.15625 -2.23341,1.31338 -1.58241,0.91992 0.1875,-0.21875 0.2188,-0.12635 0.4375,-0.24856 0.65625,-0.375 5.50378,-3.93442 10.7507,-8.21014 15.59375,-12.9375 1.44919,-1.41456 2.81188,-2.88708 4.21875,-4.34375 5.23984,-5.52076 9.49555,-11.87389 14.09375,-17.90625 3.03943,-3.98738 3.29678,-4.12443 6.625,-7.90625 0.30679,-0.32405 0.62713,-0.64828 0.9375,-0.96875 2.68894,-4.38472 5.89913,-8.44477 11.40625,-11.75 3.67553,-1.56178 7.48754,-3.01442 11.34375,-4.34375 2.1899,-1.02855 4.33338,-1.97709 6.125,-2.71875 1.90283,-0.7877 3.91867,-1.2941 5.875,-1.9375 3.46081,-0.95462 7.02773,-2.1424 10.65625,-2.1875 1.20951,-0.015 2.44248,0.0869 3.65625,0.375 3.23786,0.7685 6.12841,2.5413 8.90625,4.3125 0.0942,0.0482 0.18705,0.10735 0.28125,0.15625 4.12008,2.14078 8.16138,4.98574 11.78125,7.9375 7.56884,5.11652 15.1249,10.27329 23,14.90625 12.32193,4.70603 28.11866,9.70815 32.8125,14.15625 8.492,3.93833 9.82097,5.36362 14.5,13.96875 0.37116,4.31382 4.5412,9.65188 9.9375,15.34375 l 0.625,-0.375 c 3.50193,4.22994 8.24319,6.98063 13.09375,9.4375 2.17043,0.6787 3.08052,0.91781 5.78125,1.59375 2.6218,0.57736 5.27358,1.09115 7.9375,1.4375 2.1312,0.27708 4.29836,0.39421 6.4375,0.59375 2.43765,0.27148 4.87414,0.58796 7.3125,0.875 l 16.40625,0 0,-92.75 -300,0 z m 69.03125,62.03125 c -0.32967,0.30817 -0.66695,0.6018 -1,0.90625 l 0.21875,-0.0937 c 0.25803,-0.26891 0.52609,-0.54008 0.78125,-0.8125 z"
       id="rect4359" />
    <g
       id="g5147"
       transform="matrix(0.21409157,-0.11610488,0.11221023,0.20823121,28.937654,217.82501)">
      <path
         d="m 197.39644,467.86746 c 0,0 -0.12477,-0.23637 -0.34427,-0.66959 -2.10951,-4.06606 -13.35021,-25.43218 -16.377,-23.69928 -3.34795,1.91796 -19.35988,36.7817 -19.35988,36.7817 0,0 -5.49212,-2.61297 -5.72779,-0.69963 -0.23337,1.90457 2.38677,2.85835 5.25875,2.61575 2.86505,-0.23568 20.06228,-33.92058 20.54056,-36.06683 0.47828,-2.15433 12.18802,21.97517 16.00963,21.73788"
         style="fill:#431b1e;fill-opacity:1;fill-rule:nonzero;stroke:none"
         id="path142" />
      <path
         d="m 169.90582,470.00747 c 0,0 -14.59328,-1.71118 -7.72409,-18.02672 6.86688,-16.32431 14.02027,-22.05649 28.0567,-20.61865 14.0295,1.43044 25.19396,26.04931 10.30725,35.78609 -14.89133,9.73563 -30.63986,2.85928 -30.63986,2.85928"
         style="fill:#8b725e;fill-opacity:1;fill-rule:nonzero;stroke:none"
         id="path144" />
      <path
         d="m 176.80735,468.41621 c 0,0 -14.60251,-1.71025 -7.73101,-18.03295 4.37613,-10.40175 8.8701,-16.49576 15.18939,-19.17736 -10.39505,0.61368 -16.48098,6.8216 -22.35433,20.77485 -6.86919,16.31554 7.73333,18.02672 7.73333,18.02672 0,0 11.22221,4.90085 23.67825,0.56862 -9.29293,1.00184 -16.51563,-2.15988 -16.51563,-2.15988"
         style="fill:#6e5846;fill-opacity:1;fill-rule:nonzero;stroke:none"
         id="path146" />
      <path
         d="m 213.91206,482.93092 c 0,0 -1.34934,-5.5344 -3.1631,-12.64365 l -1.83456,0.2634 c 2.3706,7.96507 4.57022,14.52211 5.30034,14.63209 1.79528,0.2872 3.43806,-0.84565 3.29943,-3.10373 -0.1548,-2.26639 -3.60211,0.85189 -3.60211,0.85189"
         style="fill:#431b1e;fill-opacity:1;fill-rule:nonzero;stroke:none"
         id="path148" />
      <path
         d="m 224.36257,470.24106 c 0,0 0.0855,-0.21557 0.24491,-0.59288 1.52033,-3.68228 9.64413,-22.99249 11.83682,-21.42203 2.40525,1.72851 13.96943,33.24822 13.96943,33.24822 0,0 3.96948,-2.381 4.13584,-0.65434 0.1756,1.7255 -1.71903,2.58478 -3.79157,2.37984 -2.07023,-0.22274 -14.49392,-30.65327 -14.84281,-32.60173 -0.34658,-1.94778 -8.79386,19.86427 -11.55262,19.64292"
         style="fill:#431b1e;fill-opacity:1;fill-rule:nonzero;stroke:none"
         id="path150" />
      <path
         d="m 222.86997,451.11893 c 0,0 -11.16446,-5.43967 -19.17967,3.14532 -8.01983,8.58775 3.43806,19.18359 12.89273,18.32176 9.4408,-0.8512 14.30677,-6.00921 14.30677,-6.00921 l -8.01983,-15.45787"
         style="fill:#8b725e;fill-opacity:1;fill-rule:nonzero;stroke:none"
         id="path152" />
      <path
         d="m 207.13761,452.67576 c 0.82947,-0.88447 1.69361,-1.61552 2.56237,-2.22919 -2.13724,0.70563 -4.29989,1.96302 -6.28001,4.08847 -8.00828,8.58776 3.44037,19.18174 12.89273,18.31899 5.03925,-0.4621 8.76382,-2.13908 11.15521,-3.60742 -2.04019,0.80776 -4.5217,1.48289 -7.43758,1.75369 -9.45697,0.85189 -20.90562,-9.74117 -12.89272,-18.32454"
         style="fill:#6e5846;fill-opacity:1;fill-rule:nonzero;stroke:none"
         id="path154" />
      <path
         d="m 241.19705,472.58601 c 3.59979,0.0739 6.82991,-0.005 9.72961,-0.23013 20.34186,-1.47296 24.55164,-9.4244 24.05487,-18.95184 -0.57763,-10.87564 -16.88993,-36.35356 -38.36625,-28.34182 -5.36273,2.00554 -9.02029,5.28001 -11.481,9.06627 -1.22227,1.88631 -2.14648,3.90987 -2.85119,5.963 -3.93482,11.48146 -2.1534,28.06039 12.10715,31.54513 1.95933,0.55868 4.22826,0.90595 6.80681,0.94939"
         style="fill:#8b725e;fill-opacity:1;fill-rule:nonzero;stroke:none"
         id="path156" />
      <path
         d="m 247.03574,469.67082 c -2.58085,-0.0543 -4.84748,-0.4018 -6.81836,-0.95401 -14.26055,-3.48035 -16.03041,-20.06645 -12.10021,-31.5449 0.70009,-2.05244 1.63123,-4.06791 2.85812,-5.96601 1.4487,-2.21925 3.30174,-4.26453 5.67695,-5.98564 -0.10397,0.0317 -0.20332,0.0677 -0.30267,0.10836 -5.36966,2.00531 -9.01567,5.27724 -11.47407,9.05703 -1.23382,1.89809 -2.15572,3.91703 -2.85118,5.97039 -3.94176,11.47592 -2.16497,28.06017 12.09328,31.5486 1.96395,0.55221 4.23519,0.90249 6.81143,0.94939 3.59979,0.0633 6.83684,-0.0171 9.73655,-0.22551 9.17047,-0.67421 15.05306,-2.66264 18.71293,-5.50574 -3.28094,1.13724 -7.4214,1.94499 -12.61315,2.31607 -2.90664,0.22111 -6.14137,0.29228 -9.72962,0.23197"
         style="fill:#6e5846;fill-opacity:1;fill-rule:nonzero;stroke:none"
         id="path158" />
      <path
         d="m 251.2201,425.10912 0,0 c 0.067,-0.26987 6.76984,-27.57449 12.69864,-29.84897 l -0.21719,-0.55499 c -6.21531,2.38539 -12.78413,29.12971 -13.06139,30.27134 l 0.57994,0.13262"
         style="fill:#451a11;fill-opacity:1;fill-rule:nonzero;stroke:none"
         id="path160" />
      <path
         d="m 263.24176,394.99837 c 0,0 -1.72134,-3.72018 8.59053,-1.71302 0,0 1.43252,7.72847 -6.58731,3.14531 l -2.00322,-1.43229"
         style="fill:#451a11;fill-opacity:1;fill-rule:nonzero;stroke:none"
         id="path162" />
      <path
         d="m 253.19098,425.38546 0,0 c 0.14556,-0.24468 13.6783,-24.89058 20.00452,-25.55671 l -0.0578,-0.58387 c -6.63352,0.69224 -19.89593,24.83375 -20.46201,25.85523 l 0.51525,0.28535"
         style="fill:#451a11;fill-opacity:1;fill-rule:nonzero;stroke:none"
         id="path164" />
      <path
         d="m 264.32771,393.68068 1.93159,1.16889 c 2.63631,1.25439 4.23751,1.35097 5.19868,0.90688 0.0762,-1.12638 -0.20332,-2.17328 -0.20332,-2.17328 -3.57669,-0.42144 -5.69313,-0.27703 -6.92695,0.0975"
         style="fill:#764c46;fill-opacity:1;fill-rule:nonzero;stroke:none"
         id="path166" />
      <path
         d="m 271.48571,400.28023 c 0,0 -1.70979,-3.72041 8.59284,-1.71672 0,0 1.43022,7.73032 -6.58037,3.15155 l -2.01247,-1.43483"
         style="fill:#451a11;fill-opacity:1;fill-rule:nonzero;stroke:none"
         id="path168" />
      <path
         d="m 272.57628,398.95607 1.92929,1.1779 c 2.63399,1.25623 4.24674,1.3475 5.19868,0.89626 0.0739,-1.11737 -0.19871,-2.16266 -0.19871,-2.16266 -3.57669,-0.42144 -5.69544,-0.28142 -6.92926,0.0885"
         style="fill:#764c46;fill-opacity:1;fill-rule:nonzero;stroke:none"
         id="path170" />
      <path
         d="m 264.32771,393.68068 -0.16636,0.2798 1.93622,1.17953 0.0185,0.006 c 1.756,0.83664 3.073,1.17051 4.09656,1.17952 0.54298,0 0.99353,-0.0991 1.3817,-0.2798 l 0.16635,-0.0811 0.0185,-0.19408 c 0.007,-0.14903 0.0185,-0.29344 0.0185,-0.43947 0,-0.99098 -0.2195,-1.81514 -0.2195,-1.82762 l -0.0578,-0.21765 -0.22874,-0.0289 c -1.53419,-0.17607 -2.80729,-0.25278 -3.85858,-0.25278 -1.42559,0 -2.44915,0.13355 -3.19545,0.36738 l -0.70471,0.20309 0.62846,0.38632 0.16636,-0.2798 0.0947,0.30684 c 0.66312,-0.19409 1.63354,-0.33388 3.01061,-0.33388 1.02125,0 2.27356,0.0739 3.78464,0.25278 l 0.037,-0.32325 -0.31423,0.0857 0.009,0.0326 c 0.0393,0.14626 0.19408,0.84565 0.19408,1.62915 0,0.12985 0,0.25901 -0.0139,0.3988 l 0.32809,0.027 -0.14094,-0.30221 c -0.28419,0.13077 -0.64463,0.21464 -1.10443,0.21464 -0.87569,0.0109 -2.11644,-0.30036 -3.81236,-1.10997 l -0.14095,0.29066 0.16867,-0.27541 -1.92697,-1.17329 -0.17329,0.27981 0.0947,0.30684 -0.0947,-0.30684"
         style="fill:#451a11;fill-opacity:1;fill-rule:nonzero;stroke:none"
         id="path172" />
      <path
         d="m 213.36678,470.6997 c 0,0 0.10859,-0.21673 0.30961,-0.61206 1.9316,-3.76361 12.22267,-23.54471 15.00224,-21.93635 3.04989,1.75808 17.70554,34.05413 17.70554,34.05413 0,0 5.02077,-2.44408 5.23565,-0.67237 0.22181,1.77795 -2.17882,2.65965 -4.80358,2.44038 -2.62244,-0.22551 -18.35943,-31.40419 -18.80074,-33.39147 -0.43899,-1.99467 -11.14828,20.34163 -14.64872,20.11774"
         style="fill:#431b1e;fill-opacity:1;fill-rule:nonzero;stroke:none"
         id="path174" />
      <path
         d="m 207.47494,469.37115 c 0,0 0.0716,-0.29159 0.20795,-0.78974 1.32393,-4.8223 8.38027,-30.10729 10.28183,-28.06294 2.09796,2.26709 12.13488,43.55246 12.13488,43.55246 0,0 3.44961,-3.1065 3.60211,-0.84842 0.14787,2.26085 -1.50416,3.39809 -3.29481,3.1065 -1.79759,-0.27703 -12.59236,-40.14883 -12.89273,-42.69849 -0.30268,-2.54343 -7.64321,26.01766 -10.03923,25.74063"
         style="fill:#431b1e;fill-opacity:1;fill-rule:nonzero;stroke:none"
         id="path176" />
      <path
         d="m 263.84943,443.08339 c 0,7.1104 -5.75783,12.87493 -12.88349,12.87493 -7.10948,0 -12.86962,-5.76453 -12.86962,-12.87493 0,-7.11549 5.76014,-12.88279 12.86962,-12.88279 7.12566,0 12.88349,5.7673 12.88349,12.88279"
         style="fill:#ffffff;fill-opacity:1;fill-rule:nonzero;stroke:none"
         id="path178" />
      <path
         d="m 251.22703,451.93108 c -6.79063,0 -12.32664,-4.86643 -12.60853,-10.97037 -0.34196,1.05152 -0.52218,2.15086 -0.52218,3.29873 0,6.32252 5.64461,11.43525 12.61316,11.43525 6.97085,0 12.62008,-5.11273 12.62008,-11.43525 0,-0.15965 0,-0.32486 -0.0139,-0.48105 -1.56192,4.71578 -6.37474,8.15269 -12.08867,8.15269"
         style="fill:#edf2f7;fill-opacity:1;fill-rule:nonzero;stroke:none"
         id="path180" />
      <path
         d="m 257.69419,441.55913 c 0,4.81236 -3.90941,8.72501 -8.72223,8.72501 -4.81975,0 -8.71992,-3.91265 -8.71992,-8.72501 0,-4.82414 3.90017,-8.7213 8.71992,-8.7213 4.81282,0 8.72223,3.89716 8.72223,8.7213"
         style="fill:#451a11;fill-opacity:1;fill-rule:nonzero;stroke:none"
         id="path182" />
      <path
         d="m 257.69419,441.55913 -0.32347,0 c 0,2.31954 -0.94501,4.41079 -2.46071,5.93874 -1.52495,1.51548 -3.61366,2.45679 -5.93805,2.45679 -2.32208,0 -4.41772,-0.94131 -5.93343,-2.45679 -1.53187,-1.52795 -2.46533,-3.6192 -2.46533,-5.93874 0,-2.32693 0.93346,-4.42072 2.46533,-5.94151 1.51571,-1.52079 3.61135,-2.4577 5.93343,-2.4577 2.32439,0 4.4131,0.93691 5.93805,2.4577 1.5157,1.52079 2.46071,3.61458 2.46071,5.94151 l 0.65157,0 c 0,-5.00297 -4.05035,-9.05078 -9.05033,-9.05078 -4.99997,0 -9.04801,4.04781 -9.04801,9.05078 0,4.99559 4.04804,9.04085 9.04801,9.04085 4.99998,0 9.05033,-4.04526 9.05033,-9.04085 l -0.3281,0"
         style="fill:#451a11;fill-opacity:1;fill-rule:nonzero;stroke:none"
         id="path184" />
      <path
         d="m 249.91003,439.4353 c 0,2.10027 -1.69823,3.80428 -3.80312,3.80428 -2.10027,0 -3.80543,-1.70401 -3.80543,-3.80428 0,-2.10743 1.70516,-3.8059 3.80543,-3.8059 2.10489,0 3.80312,1.69847 3.80312,3.8059"
         style="fill:#764c46;fill-opacity:1;fill-rule:nonzero;stroke:none"
         id="path186" />
      <path
         d="m 249.91003,439.4353 -0.32578,0 c 0,0.95402 -0.38586,1.82323 -1.02356,2.45955 -0.62615,0.62269 -1.4926,1.01363 -2.45378,1.01363 -0.95656,0 -1.82762,-0.39094 -2.4584,-1.01363 -0.62846,-0.63632 -1.01663,-1.50553 -1.01663,-2.45955 0,-0.96118 0.38817,-1.82763 1.01663,-2.46579 0.63078,-0.62708 1.50184,-1.0134 2.4584,-1.0134 0.96118,0 1.82763,0.38632 2.45378,1.0134 0.6377,0.63816 1.02356,1.50461 1.02356,2.46579 l 0.65619,0 c 0,-2.28788 -1.85535,-4.13815 -4.13353,-4.13815 -2.28511,0 -4.1266,1.85027 -4.1266,4.13815 0,2.28349 1.84149,4.13099 4.1266,4.13099 2.27818,0 4.13353,-1.8475 4.13353,-4.13099 l -0.33041,0"
         style="fill:#451a11;fill-opacity:1;fill-rule:nonzero;stroke:none"
         id="path188" />
      <path
         d="m 247.29452,438.80822 c 0,1.10374 -0.88493,1.99445 -1.98705,1.99445 -1.09057,0 -1.98474,-0.89071 -1.98474,-1.99445 0,-1.09218 0.89417,-1.98843 1.98474,-1.98843 1.10212,0 1.98705,0.89625 1.98705,1.98843"
         style="fill:#ffffff;fill-opacity:1;fill-rule:nonzero;stroke:none"
         id="path190" />
      <path
         d="m 207.41487,469.43885 c 0,0 -0.14325,-0.28535 -0.41127,-0.79529 -2.52772,-4.88445 -16.00501,-30.48067 -19.6256,-28.40951 -4.02031,2.29435 -23.19304,44.10121 -23.19304,44.10121 0,0 -6.59193,-3.14786 -6.88074,-0.86645 -0.28189,2.29158 2.86967,3.43783 6.3008,3.15179 3.44037,-0.29159 24.04793,-40.65807 24.62557,-43.23477 0.57069,-2.5723 14.60482,26.33906 19.18428,26.05302"
         style="fill:#431b1e;fill-opacity:1;fill-rule:nonzero;stroke:none"
         id="path192" />
    </g>
    <g
       transform="matrix(0.1864349,-0.15670856,0.15171702,0.18147538,47.945439,212.37681)"
       id="g3212">
      <path
         id="path3214"
         style="fill:#431b1e;fill-opacity:1;fill-rule:nonzero;stroke:none"
         d="m 197.39644,467.86746 c 0,0 -0.12477,-0.23637 -0.34427,-0.66959 -2.10951,-4.06606 -13.35021,-25.43218 -16.377,-23.69928 -3.34795,1.91796 -19.35988,36.7817 -19.35988,36.7817 0,0 -5.49212,-2.61297 -5.72779,-0.69963 -0.23337,1.90457 2.38677,2.85835 5.25875,2.61575 2.86505,-0.23568 20.06228,-33.92058 20.54056,-36.06683 0.47828,-2.15433 12.18802,21.97517 16.00963,21.73788" />
      <path
         id="path3216"
         style="fill:#8b725e;fill-opacity:1;fill-rule:nonzero;stroke:none"
         d="m 169.90582,470.00747 c 0,0 -14.59328,-1.71118 -7.72409,-18.02672 6.86688,-16.32431 14.02027,-22.05649 28.0567,-20.61865 14.0295,1.43044 25.19396,26.04931 10.30725,35.78609 -14.89133,9.73563 -30.63986,2.85928 -30.63986,2.85928" />
      <path
         id="path3218"
         style="fill:#6e5846;fill-opacity:1;fill-rule:nonzero;stroke:none"
         d="m 176.80735,468.41621 c 0,0 -14.60251,-1.71025 -7.73101,-18.03295 4.37613,-10.40175 8.8701,-16.49576 15.18939,-19.17736 -10.39505,0.61368 -16.48098,6.8216 -22.35433,20.77485 -6.86919,16.31554 7.73333,18.02672 7.73333,18.02672 0,0 11.22221,4.90085 23.67825,0.56862 -9.29293,1.00184 -16.51563,-2.15988 -16.51563,-2.15988" />
      <path
         id="path3220"
         style="fill:#431b1e;fill-opacity:1;fill-rule:nonzero;stroke:none"
         d="m 213.91206,482.93092 c 0,0 -1.34934,-5.5344 -3.1631,-12.64365 l -1.83456,0.2634 c 2.3706,7.96507 4.57022,14.52211 5.30034,14.63209 1.79528,0.2872 3.43806,-0.84565 3.29943,-3.10373 -0.1548,-2.26639 -3.60211,0.85189 -3.60211,0.85189" />
      <path
         id="path3222"
         style="fill:#431b1e;fill-opacity:1;fill-rule:nonzero;stroke:none"
         d="m 224.36257,470.24106 c 0,0 0.0855,-0.21557 0.24491,-0.59288 1.52033,-3.68228 9.64413,-22.99249 11.83682,-21.42203 2.40525,1.72851 13.96943,33.24822 13.96943,33.24822 0,0 3.96948,-2.381 4.13584,-0.65434 0.1756,1.7255 -1.71903,2.58478 -3.79157,2.37984 -2.07023,-0.22274 -14.49392,-30.65327 -14.84281,-32.60173 -0.34658,-1.94778 -8.79386,19.86427 -11.55262,19.64292" />
      <path
         id="path3224"
         style="fill:#8b725e;fill-opacity:1;fill-rule:nonzero;stroke:none"
         d="m 222.86997,451.11893 c 0,0 -11.16446,-5.43967 -19.17967,3.14532 -8.01983,8.58775 3.43806,19.18359 12.89273,18.32176 9.4408,-0.8512 14.30677,-6.00921 14.30677,-6.00921 l -8.01983,-15.45787" />
      <path
         id="path3226"
         style="fill:#6e5846;fill-opacity:1;fill-rule:nonzero;stroke:none"
         d="m 207.13761,452.67576 c 0.82947,-0.88447 1.69361,-1.61552 2.56237,-2.22919 -2.13724,0.70563 -4.29989,1.96302 -6.28001,4.08847 -8.00828,8.58776 3.44037,19.18174 12.89273,18.31899 5.03925,-0.4621 8.76382,-2.13908 11.15521,-3.60742 -2.04019,0.80776 -4.5217,1.48289 -7.43758,1.75369 -9.45697,0.85189 -20.90562,-9.74117 -12.89272,-18.32454" />
      <path
         id="path3228"
         style="fill:#8b725e;fill-opacity:1;fill-rule:nonzero;stroke:none"
         d="m 241.19705,472.58601 c 3.59979,0.0739 6.82991,-0.005 9.72961,-0.23013 20.34186,-1.47296 24.55164,-9.4244 24.05487,-18.95184 -0.57763,-10.87564 -16.88993,-36.35356 -38.36625,-28.34182 -5.36273,2.00554 -9.02029,5.28001 -11.481,9.06627 -1.22227,1.88631 -2.14648,3.90987 -2.85119,5.963 -3.93482,11.48146 -2.1534,28.06039 12.10715,31.54513 1.95933,0.55868 4.22826,0.90595 6.80681,0.94939" />
      <path
         id="path3230"
         style="fill:#6e5846;fill-opacity:1;fill-rule:nonzero;stroke:none"
         d="m 247.03574,469.67082 c -2.58085,-0.0543 -4.84748,-0.4018 -6.81836,-0.95401 -14.26055,-3.48035 -16.03041,-20.06645 -12.10021,-31.5449 0.70009,-2.05244 1.63123,-4.06791 2.85812,-5.96601 1.4487,-2.21925 3.30174,-4.26453 5.67695,-5.98564 -0.10397,0.0317 -0.20332,0.0677 -0.30267,0.10836 -5.36966,2.00531 -9.01567,5.27724 -11.47407,9.05703 -1.23382,1.89809 -2.15572,3.91703 -2.85118,5.97039 -3.94176,11.47592 -2.16497,28.06017 12.09328,31.5486 1.96395,0.55221 4.23519,0.90249 6.81143,0.94939 3.59979,0.0633 6.83684,-0.0171 9.73655,-0.22551 9.17047,-0.67421 15.05306,-2.66264 18.71293,-5.50574 -3.28094,1.13724 -7.4214,1.94499 -12.61315,2.31607 -2.90664,0.22111 -6.14137,0.29228 -9.72962,0.23197" />
      <path
         id="path3232"
         style="fill:#451a11;fill-opacity:1;fill-rule:nonzero;stroke:none"
         d="m 251.2201,425.10912 0,0 c 0.067,-0.26987 6.76984,-27.57449 12.69864,-29.84897 l -0.21719,-0.55499 c -6.21531,2.38539 -12.78413,29.12971 -13.06139,30.27134 l 0.57994,0.13262" />
      <path
         id="path3234"
         style="fill:#451a11;fill-opacity:1;fill-rule:nonzero;stroke:none"
         d="m 263.24176,394.99837 c 0,0 -1.72134,-3.72018 8.59053,-1.71302 0,0 1.43252,7.72847 -6.58731,3.14531 l -2.00322,-1.43229" />
      <path
         id="path3236"
         style="fill:#451a11;fill-opacity:1;fill-rule:nonzero;stroke:none"
         d="m 253.19098,425.38546 0,0 c 0.14556,-0.24468 13.6783,-24.89058 20.00452,-25.55671 l -0.0578,-0.58387 c -6.63352,0.69224 -19.89593,24.83375 -20.46201,25.85523 l 0.51525,0.28535" />
      <path
         id="path3238"
         style="fill:#764c46;fill-opacity:1;fill-rule:nonzero;stroke:none"
         d="m 264.32771,393.68068 1.93159,1.16889 c 2.63631,1.25439 4.23751,1.35097 5.19868,0.90688 0.0762,-1.12638 -0.20332,-2.17328 -0.20332,-2.17328 -3.57669,-0.42144 -5.69313,-0.27703 -6.92695,0.0975" />
      <path
         id="path3240"
         style="fill:#451a11;fill-opacity:1;fill-rule:nonzero;stroke:none"
         d="m 271.48571,400.28023 c 0,0 -1.70979,-3.72041 8.59284,-1.71672 0,0 1.43022,7.73032 -6.58037,3.15155 l -2.01247,-1.43483" />
      <path
         id="path3242"
         style="fill:#764c46;fill-opacity:1;fill-rule:nonzero;stroke:none"
         d="m 272.57628,398.95607 1.92929,1.1779 c 2.63399,1.25623 4.24674,1.3475 5.19868,0.89626 0.0739,-1.11737 -0.19871,-2.16266 -0.19871,-2.16266 -3.57669,-0.42144 -5.69544,-0.28142 -6.92926,0.0885" />
      <path
         id="path3244"
         style="fill:#451a11;fill-opacity:1;fill-rule:nonzero;stroke:none"
         d="m 264.32771,393.68068 -0.16636,0.2798 1.93622,1.17953 0.0185,0.006 c 1.756,0.83664 3.073,1.17051 4.09656,1.17952 0.54298,0 0.99353,-0.0991 1.3817,-0.2798 l 0.16635,-0.0811 0.0185,-0.19408 c 0.007,-0.14903 0.0185,-0.29344 0.0185,-0.43947 0,-0.99098 -0.2195,-1.81514 -0.2195,-1.82762 l -0.0578,-0.21765 -0.22874,-0.0289 c -1.53419,-0.17607 -2.80729,-0.25278 -3.85858,-0.25278 -1.42559,0 -2.44915,0.13355 -3.19545,0.36738 l -0.70471,0.20309 0.62846,0.38632 0.16636,-0.2798 0.0947,0.30684 c 0.66312,-0.19409 1.63354,-0.33388 3.01061,-0.33388 1.02125,0 2.27356,0.0739 3.78464,0.25278 l 0.037,-0.32325 -0.31423,0.0857 0.009,0.0326 c 0.0393,0.14626 0.19408,0.84565 0.19408,1.62915 0,0.12985 0,0.25901 -0.0139,0.3988 l 0.32809,0.027 -0.14094,-0.30221 c -0.28419,0.13077 -0.64463,0.21464 -1.10443,0.21464 -0.87569,0.0109 -2.11644,-0.30036 -3.81236,-1.10997 l -0.14095,0.29066 0.16867,-0.27541 -1.92697,-1.17329 -0.17329,0.27981 0.0947,0.30684 -0.0947,-0.30684" />
      <path
         id="path3246"
         style="fill:#431b1e;fill-opacity:1;fill-rule:nonzero;stroke:none"
         d="m 213.36678,470.6997 c 0,0 0.10859,-0.21673 0.30961,-0.61206 1.9316,-3.76361 12.22267,-23.54471 15.00224,-21.93635 3.04989,1.75808 17.70554,34.05413 17.70554,34.05413 0,0 5.02077,-2.44408 5.23565,-0.67237 0.22181,1.77795 -2.17882,2.65965 -4.80358,2.44038 -2.62244,-0.22551 -18.35943,-31.40419 -18.80074,-33.39147 -0.43899,-1.99467 -11.14828,20.34163 -14.64872,20.11774" />
      <path
         id="path3248"
         style="fill:#431b1e;fill-opacity:1;fill-rule:nonzero;stroke:none"
         d="m 207.47494,469.37115 c 0,0 0.0716,-0.29159 0.20795,-0.78974 1.32393,-4.8223 8.38027,-30.10729 10.28183,-28.06294 2.09796,2.26709 12.13488,43.55246 12.13488,43.55246 0,0 3.44961,-3.1065 3.60211,-0.84842 0.14787,2.26085 -1.50416,3.39809 -3.29481,3.1065 -1.79759,-0.27703 -12.59236,-40.14883 -12.89273,-42.69849 -0.30268,-2.54343 -7.64321,26.01766 -10.03923,25.74063" />
      <path
         id="path3250"
         style="fill:#ffffff;fill-opacity:1;fill-rule:nonzero;stroke:none"
         d="m 263.84943,443.08339 c 0,7.1104 -5.75783,12.87493 -12.88349,12.87493 -7.10948,0 -12.86962,-5.76453 -12.86962,-12.87493 0,-7.11549 5.76014,-12.88279 12.86962,-12.88279 7.12566,0 12.88349,5.7673 12.88349,12.88279" />
      <path
         id="path3252"
         style="fill:#edf2f7;fill-opacity:1;fill-rule:nonzero;stroke:none"
         d="m 251.22703,451.93108 c -6.79063,0 -12.32664,-4.86643 -12.60853,-10.97037 -0.34196,1.05152 -0.52218,2.15086 -0.52218,3.29873 0,6.32252 5.64461,11.43525 12.61316,11.43525 6.97085,0 12.62008,-5.11273 12.62008,-11.43525 0,-0.15965 0,-0.32486 -0.0139,-0.48105 -1.56192,4.71578 -6.37474,8.15269 -12.08867,8.15269" />
      <path
         id="path3254"
         style="fill:#451a11;fill-opacity:1;fill-rule:nonzero;stroke:none"
         d="m 257.69419,441.55913 c 0,4.81236 -3.90941,8.72501 -8.72223,8.72501 -4.81975,0 -8.71992,-3.91265 -8.71992,-8.72501 0,-4.82414 3.90017,-8.7213 8.71992,-8.7213 4.81282,0 8.72223,3.89716 8.72223,8.7213" />
      <path
         id="path3256"
         style="fill:#451a11;fill-opacity:1;fill-rule:nonzero;stroke:none"
         d="m 257.69419,441.55913 -0.32347,0 c 0,2.31954 -0.94501,4.41079 -2.46071,5.93874 -1.52495,1.51548 -3.61366,2.45679 -5.93805,2.45679 -2.32208,0 -4.41772,-0.94131 -5.93343,-2.45679 -1.53187,-1.52795 -2.46533,-3.6192 -2.46533,-5.93874 0,-2.32693 0.93346,-4.42072 2.46533,-5.94151 1.51571,-1.52079 3.61135,-2.4577 5.93343,-2.4577 2.32439,0 4.4131,0.93691 5.93805,2.4577 1.5157,1.52079 2.46071,3.61458 2.46071,5.94151 l 0.65157,0 c 0,-5.00297 -4.05035,-9.05078 -9.05033,-9.05078 -4.99997,0 -9.04801,4.04781 -9.04801,9.05078 0,4.99559 4.04804,9.04085 9.04801,9.04085 4.99998,0 9.05033,-4.04526 9.05033,-9.04085 l -0.3281,0" />
      <path
         id="path3258"
         style="fill:#764c46;fill-opacity:1;fill-rule:nonzero;stroke:none"
         d="m 249.91003,439.4353 c 0,2.10027 -1.69823,3.80428 -3.80312,3.80428 -2.10027,0 -3.80543,-1.70401 -3.80543,-3.80428 0,-2.10743 1.70516,-3.8059 3.80543,-3.8059 2.10489,0 3.80312,1.69847 3.80312,3.8059" />
      <path
         id="path3260"
         style="fill:#451a11;fill-opacity:1;fill-rule:nonzero;stroke:none"
         d="m 249.91003,439.4353 -0.32578,0 c 0,0.95402 -0.38586,1.82323 -1.02356,2.45955 -0.62615,0.62269 -1.4926,1.01363 -2.45378,1.01363 -0.95656,0 -1.82762,-0.39094 -2.4584,-1.01363 -0.62846,-0.63632 -1.01663,-1.50553 -1.01663,-2.45955 0,-0.96118 0.38817,-1.82763 1.01663,-2.46579 0.63078,-0.62708 1.50184,-1.0134 2.4584,-1.0134 0.96118,0 1.82763,0.38632 2.45378,1.0134 0.6377,0.63816 1.02356,1.50461 1.02356,2.46579 l 0.65619,0 c 0,-2.28788 -1.85535,-4.13815 -4.13353,-4.13815 -2.28511,0 -4.1266,1.85027 -4.1266,4.13815 0,2.28349 1.84149,4.13099 4.1266,4.13099 2.27818,0 4.13353,-1.8475 4.13353,-4.13099 l -0.33041,0" />
      <path
         id="path3262"
         style="fill:#ffffff;fill-opacity:1;fill-rule:nonzero;stroke:none"
         d="m 247.29452,438.80822 c 0,1.10374 -0.88493,1.99445 -1.98705,1.99445 -1.09057,0 -1.98474,-0.89071 -1.98474,-1.99445 0,-1.09218 0.89417,-1.98843 1.98474,-1.98843 1.10212,0 1.98705,0.89625 1.98705,1.98843" />
      <path
         id="path3264"
         style="fill:#431b1e;fill-opacity:1;fill-rule:nonzero;stroke:none"
         d="m 207.41487,469.43885 c 0,0 -0.14325,-0.28535 -0.41127,-0.79529 -2.52772,-4.88445 -16.00501,-30.48067 -19.6256,-28.40951 -4.02031,2.29435 -23.19304,44.10121 -23.19304,44.10121 0,0 -6.59193,-3.14786 -6.88074,-0.86645 -0.28189,2.29158 2.86967,3.43783 6.3008,3.15179 3.44037,-0.29159 24.04793,-40.65807 24.62557,-43.23477 0.57069,-2.5723 14.60482,26.33906 19.18428,26.05302" />
    </g>
    <g
       id="g3266"
       transform="matrix(0.16118397,-0.1825795,0.17690881,0.15701797,63.575832,204.01372)">
      <path
         d="m 197.39644,467.86746 c 0,0 -0.12477,-0.23637 -0.34427,-0.66959 -2.10951,-4.06606 -13.35021,-25.43218 -16.377,-23.69928 -3.34795,1.91796 -19.35988,36.7817 -19.35988,36.7817 0,0 -5.49212,-2.61297 -5.72779,-0.69963 -0.23337,1.90457 2.38677,2.85835 5.25875,2.61575 2.86505,-0.23568 20.06228,-33.92058 20.54056,-36.06683 0.47828,-2.15433 12.18802,21.97517 16.00963,21.73788"
         style="fill:#431b1e;fill-opacity:1;fill-rule:nonzero;stroke:none"
         id="path3268" />
      <path
         d="m 169.90582,470.00747 c 0,0 -14.59328,-1.71118 -7.72409,-18.02672 6.86688,-16.32431 14.02027,-22.05649 28.0567,-20.61865 14.0295,1.43044 25.19396,26.04931 10.30725,35.78609 -14.89133,9.73563 -30.63986,2.85928 -30.63986,2.85928"
         style="fill:#8b725e;fill-opacity:1;fill-rule:nonzero;stroke:none"
         id="path3270" />
      <path
         d="m 176.80735,468.41621 c 0,0 -14.60251,-1.71025 -7.73101,-18.03295 4.37613,-10.40175 8.8701,-16.49576 15.18939,-19.17736 -10.39505,0.61368 -16.48098,6.8216 -22.35433,20.77485 -6.86919,16.31554 7.73333,18.02672 7.73333,18.02672 0,0 11.22221,4.90085 23.67825,0.56862 -9.29293,1.00184 -16.51563,-2.15988 -16.51563,-2.15988"
         style="fill:#6e5846;fill-opacity:1;fill-rule:nonzero;stroke:none"
         id="path3272" />
      <path
         d="m 213.91206,482.93092 c 0,0 -1.34934,-5.5344 -3.1631,-12.64365 l -1.83456,0.2634 c 2.3706,7.96507 4.57022,14.52211 5.30034,14.63209 1.79528,0.2872 3.43806,-0.84565 3.29943,-3.10373 -0.1548,-2.26639 -3.60211,0.85189 -3.60211,0.85189"
         style="fill:#431b1e;fill-opacity:1;fill-rule:nonzero;stroke:none"
         id="path3274" />
      <path
         d="m 224.36257,470.24106 c 0,0 0.0855,-0.21557 0.24491,-0.59288 1.52033,-3.68228 9.64413,-22.99249 11.83682,-21.42203 2.40525,1.72851 13.96943,33.24822 13.96943,33.24822 0,0 3.96948,-2.381 4.13584,-0.65434 0.1756,1.7255 -1.71903,2.58478 -3.79157,2.37984 -2.07023,-0.22274 -14.49392,-30.65327 -14.84281,-32.60173 -0.34658,-1.94778 -8.79386,19.86427 -11.55262,19.64292"
         style="fill:#431b1e;fill-opacity:1;fill-rule:nonzero;stroke:none"
         id="path3276" />
      <path
         d="m 222.86997,451.11893 c 0,0 -11.16446,-5.43967 -19.17967,3.14532 -8.01983,8.58775 3.43806,19.18359 12.89273,18.32176 9.4408,-0.8512 14.30677,-6.00921 14.30677,-6.00921 l -8.01983,-15.45787"
         style="fill:#8b725e;fill-opacity:1;fill-rule:nonzero;stroke:none"
         id="path3278" />
      <path
         d="m 207.13761,452.67576 c 0.82947,-0.88447 1.69361,-1.61552 2.56237,-2.22919 -2.13724,0.70563 -4.29989,1.96302 -6.28001,4.08847 -8.00828,8.58776 3.44037,19.18174 12.89273,18.31899 5.03925,-0.4621 8.76382,-2.13908 11.15521,-3.60742 -2.04019,0.80776 -4.5217,1.48289 -7.43758,1.75369 -9.45697,0.85189 -20.90562,-9.74117 -12.89272,-18.32454"
         style="fill:#6e5846;fill-opacity:1;fill-rule:nonzero;stroke:none"
         id="path3280" />
      <path
         d="m 241.19705,472.58601 c 3.59979,0.0739 6.82991,-0.005 9.72961,-0.23013 20.34186,-1.47296 24.55164,-9.4244 24.05487,-18.95184 -0.57763,-10.87564 -16.88993,-36.35356 -38.36625,-28.34182 -5.36273,2.00554 -9.02029,5.28001 -11.481,9.06627 -1.22227,1.88631 -2.14648,3.90987 -2.85119,5.963 -3.93482,11.48146 -2.1534,28.06039 12.10715,31.54513 1.95933,0.55868 4.22826,0.90595 6.80681,0.94939"
         style="fill:#8b725e;fill-opacity:1;fill-rule:nonzero;stroke:none"
         id="path3282" />
      <path
         d="m 247.03574,469.67082 c -2.58085,-0.0543 -4.84748,-0.4018 -6.81836,-0.95401 -14.26055,-3.48035 -16.03041,-20.06645 -12.10021,-31.5449 0.70009,-2.05244 1.63123,-4.06791 2.85812,-5.96601 1.4487,-2.21925 3.30174,-4.26453 5.67695,-5.98564 -0.10397,0.0317 -0.20332,0.0677 -0.30267,0.10836 -5.36966,2.00531 -9.01567,5.27724 -11.47407,9.05703 -1.23382,1.89809 -2.15572,3.91703 -2.85118,5.97039 -3.94176,11.47592 -2.16497,28.06017 12.09328,31.5486 1.96395,0.55221 4.23519,0.90249 6.81143,0.94939 3.59979,0.0633 6.83684,-0.0171 9.73655,-0.22551 9.17047,-0.67421 15.05306,-2.66264 18.71293,-5.50574 -3.28094,1.13724 -7.4214,1.94499 -12.61315,2.31607 -2.90664,0.22111 -6.14137,0.29228 -9.72962,0.23197"
         style="fill:#6e5846;fill-opacity:1;fill-rule:nonzero;stroke:none"
         id="path3284" />
      <path
         d="m 251.2201,425.10912 0,0 c 0.067,-0.26987 6.76984,-27.57449 12.69864,-29.84897 l -0.21719,-0.55499 c -6.21531,2.38539 -12.78413,29.12971 -13.06139,30.27134 l 0.57994,0.13262"
         style="fill:#451a11;fill-opacity:1;fill-rule:nonzero;stroke:none"
         id="path3286" />
      <path
         d="m 263.24176,394.99837 c 0,0 -1.72134,-3.72018 8.59053,-1.71302 0,0 1.43252,7.72847 -6.58731,3.14531 l -2.00322,-1.43229"
         style="fill:#451a11;fill-opacity:1;fill-rule:nonzero;stroke:none"
         id="path3288" />
      <path
         d="m 253.19098,425.38546 0,0 c 0.14556,-0.24468 13.6783,-24.89058 20.00452,-25.55671 l -0.0578,-0.58387 c -6.63352,0.69224 -19.89593,24.83375 -20.46201,25.85523 l 0.51525,0.28535"
         style="fill:#451a11;fill-opacity:1;fill-rule:nonzero;stroke:none"
         id="path3290" />
      <path
         d="m 264.32771,393.68068 1.93159,1.16889 c 2.63631,1.25439 4.23751,1.35097 5.19868,0.90688 0.0762,-1.12638 -0.20332,-2.17328 -0.20332,-2.17328 -3.57669,-0.42144 -5.69313,-0.27703 -6.92695,0.0975"
         style="fill:#764c46;fill-opacity:1;fill-rule:nonzero;stroke:none"
         id="path3292" />
      <path
         d="m 271.48571,400.28023 c 0,0 -1.70979,-3.72041 8.59284,-1.71672 0,0 1.43022,7.73032 -6.58037,3.15155 l -2.01247,-1.43483"
         style="fill:#451a11;fill-opacity:1;fill-rule:nonzero;stroke:none"
         id="path3294" />
      <path
         d="m 272.57628,398.95607 1.92929,1.1779 c 2.63399,1.25623 4.24674,1.3475 5.19868,0.89626 0.0739,-1.11737 -0.19871,-2.16266 -0.19871,-2.16266 -3.57669,-0.42144 -5.69544,-0.28142 -6.92926,0.0885"
         style="fill:#764c46;fill-opacity:1;fill-rule:nonzero;stroke:none"
         id="path3296" />
      <path
         d="m 264.32771,393.68068 -0.16636,0.2798 1.93622,1.17953 0.0185,0.006 c 1.756,0.83664 3.073,1.17051 4.09656,1.17952 0.54298,0 0.99353,-0.0991 1.3817,-0.2798 l 0.16635,-0.0811 0.0185,-0.19408 c 0.007,-0.14903 0.0185,-0.29344 0.0185,-0.43947 0,-0.99098 -0.2195,-1.81514 -0.2195,-1.82762 l -0.0578,-0.21765 -0.22874,-0.0289 c -1.53419,-0.17607 -2.80729,-0.25278 -3.85858,-0.25278 -1.42559,0 -2.44915,0.13355 -3.19545,0.36738 l -0.70471,0.20309 0.62846,0.38632 0.16636,-0.2798 0.0947,0.30684 c 0.66312,-0.19409 1.63354,-0.33388 3.01061,-0.33388 1.02125,0 2.27356,0.0739 3.78464,0.25278 l 0.037,-0.32325 -0.31423,0.0857 0.009,0.0326 c 0.0393,0.14626 0.19408,0.84565 0.19408,1.62915 0,0.12985 0,0.25901 -0.0139,0.3988 l 0.32809,0.027 -0.14094,-0.30221 c -0.28419,0.13077 -0.64463,0.21464 -1.10443,0.21464 -0.87569,0.0109 -2.11644,-0.30036 -3.81236,-1.10997 l -0.14095,0.29066 0.16867,-0.27541 -1.92697,-1.17329 -0.17329,0.27981 0.0947,0.30684 -0.0947,-0.30684"
         style="fill:#451a11;fill-opacity:1;fill-rule:nonzero;stroke:none"
         id="path3298" />
      <path
         d="m 213.36678,470.6997 c 0,0 0.10859,-0.21673 0.30961,-0.61206 1.9316,-3.76361 12.22267,-23.54471 15.00224,-21.93635 3.04989,1.75808 17.70554,34.05413 17.70554,34.05413 0,0 5.02077,-2.44408 5.23565,-0.67237 0.22181,1.77795 -2.17882,2.65965 -4.80358,2.44038 -2.62244,-0.22551 -18.35943,-31.40419 -18.80074,-33.39147 -0.43899,-1.99467 -11.14828,20.34163 -14.64872,20.11774"
         style="fill:#431b1e;fill-opacity:1;fill-rule:nonzero;stroke:none"
         id="path3300" />
      <path
         d="m 207.47494,469.37115 c 0,0 0.0716,-0.29159 0.20795,-0.78974 1.32393,-4.8223 8.38027,-30.10729 10.28183,-28.06294 2.09796,2.26709 12.13488,43.55246 12.13488,43.55246 0,0 3.44961,-3.1065 3.60211,-0.84842 0.14787,2.26085 -1.50416,3.39809 -3.29481,3.1065 -1.79759,-0.27703 -12.59236,-40.14883 -12.89273,-42.69849 -0.30268,-2.54343 -7.64321,26.01766 -10.03923,25.74063"
         style="fill:#431b1e;fill-opacity:1;fill-rule:nonzero;stroke:none"
         id="path3302" />
      <path
         d="m 263.84943,443.08339 c 0,7.1104 -5.75783,12.87493 -12.88349,12.87493 -7.10948,0 -12.86962,-5.76453 -12.86962,-12.87493 0,-7.11549 5.76014,-12.88279 12.86962,-12.88279 7.12566,0 12.88349,5.7673 12.88349,12.88279"
         style="fill:#ffffff;fill-opacity:1;fill-rule:nonzero;stroke:none"
         id="path3304" />
      <path
         d="m 251.22703,451.93108 c -6.79063,0 -12.32664,-4.86643 -12.60853,-10.97037 -0.34196,1.05152 -0.52218,2.15086 -0.52218,3.29873 0,6.32252 5.64461,11.43525 12.61316,11.43525 6.97085,0 12.62008,-5.11273 12.62008,-11.43525 0,-0.15965 0,-0.32486 -0.0139,-0.48105 -1.56192,4.71578 -6.37474,8.15269 -12.08867,8.15269"
         style="fill:#edf2f7;fill-opacity:1;fill-rule:nonzero;stroke:none"
         id="path3306" />
      <path
         d="m 257.69419,441.55913 c 0,4.81236 -3.90941,8.72501 -8.72223,8.72501 -4.81975,0 -8.71992,-3.91265 -8.71992,-8.72501 0,-4.82414 3.90017,-8.7213 8.71992,-8.7213 4.81282,0 8.72223,3.89716 8.72223,8.7213"
         style="fill:#451a11;fill-opacity:1;fill-rule:nonzero;stroke:none"
         id="path3308" />
      <path
         d="m 257.69419,441.55913 -0.32347,0 c 0,2.31954 -0.94501,4.41079 -2.46071,5.93874 -1.52495,1.51548 -3.61366,2.45679 -5.93805,2.45679 -2.32208,0 -4.41772,-0.94131 -5.93343,-2.45679 -1.53187,-1.52795 -2.46533,-3.6192 -2.46533,-5.93874 0,-2.32693 0.93346,-4.42072 2.46533,-5.94151 1.51571,-1.52079 3.61135,-2.4577 5.93343,-2.4577 2.32439,0 4.4131,0.93691 5.93805,2.4577 1.5157,1.52079 2.46071,3.61458 2.46071,5.94151 l 0.65157,0 c 0,-5.00297 -4.05035,-9.05078 -9.05033,-9.05078 -4.99997,0 -9.04801,4.04781 -9.04801,9.05078 0,4.99559 4.04804,9.04085 9.04801,9.04085 4.99998,0 9.05033,-4.04526 9.05033,-9.04085 l -0.3281,0"
         style="fill:#451a11;fill-opacity:1;fill-rule:nonzero;stroke:none"
         id="path3310" />
      <path
         d="m 249.91003,439.4353 c 0,2.10027 -1.69823,3.80428 -3.80312,3.80428 -2.10027,0 -3.80543,-1.70401 -3.80543,-3.80428 0,-2.10743 1.70516,-3.8059 3.80543,-3.8059 2.10489,0 3.80312,1.69847 3.80312,3.8059"
         style="fill:#764c46;fill-opacity:1;fill-rule:nonzero;stroke:none"
         id="path3312" />
      <path
         d="m 249.91003,439.4353 -0.32578,0 c 0,0.95402 -0.38586,1.82323 -1.02356,2.45955 -0.62615,0.62269 -1.4926,1.01363 -2.45378,1.01363 -0.95656,0 -1.82762,-0.39094 -2.4584,-1.01363 -0.62846,-0.63632 -1.01663,-1.50553 -1.01663,-2.45955 0,-0.96118 0.38817,-1.82763 1.01663,-2.46579 0.63078,-0.62708 1.50184,-1.0134 2.4584,-1.0134 0.96118,0 1.82763,0.38632 2.45378,1.0134 0.6377,0.63816 1.02356,1.50461 1.02356,2.46579 l 0.65619,0 c 0,-2.28788 -1.85535,-4.13815 -4.13353,-4.13815 -2.28511,0 -4.1266,1.85027 -4.1266,4.13815 0,2.28349 1.84149,4.13099 4.1266,4.13099 2.27818,0 4.13353,-1.8475 4.13353,-4.13099 l -0.33041,0"
         style="fill:#451a11;fill-opacity:1;fill-rule:nonzero;stroke:none"
         id="path3314" />
      <path
         d="m 247.29452,438.80822 c 0,1.10374 -0.88493,1.99445 -1.98705,1.99445 -1.09057,0 -1.98474,-0.89071 -1.98474,-1.99445 0,-1.09218 0.89417,-1.98843 1.98474,-1.98843 1.10212,0 1.98705,0.89625 1.98705,1.98843"
         style="fill:#ffffff;fill-opacity:1;fill-rule:nonzero;stroke:none"
         id="path3316" />
      <path
         d="m 207.41487,469.43885 c 0,0 -0.14325,-0.28535 -0.41127,-0.79529 -2.52772,-4.88445 -16.00501,-30.48067 -19.6256,-28.40951 -4.02031,2.29435 -23.19304,44.10121 -23.19304,44.10121 0,0 -6.59193,-3.14786 -6.88074,-0.86645 -0.28189,2.29158 2.86967,3.43783 6.3008,3.15179 3.44037,-0.29159 24.04793,-40.65807 24.62557,-43.23477 0.57069,-2.5723 14.60482,26.33906 19.18428,26.05302"
         style="fill:#431b1e;fill-opacity:1;fill-rule:nonzero;stroke:none"
         id="path3318" />
    </g>
    <g
       transform="matrix(0.23135895,-0.07608274,0.07329508,0.2248982,128.01053,130.77486)"
       id="g3320">
      <path
         id="path3322"
         style="fill:#431b1e;fill-opacity:1;fill-rule:nonzero;stroke:none"
         d="m 197.39644,467.86746 c 0,0 -0.12477,-0.23637 -0.34427,-0.66959 -2.10951,-4.06606 -13.35021,-25.43218 -16.377,-23.69928 -3.34795,1.91796 -19.35988,36.7817 -19.35988,36.7817 0,0 -5.49212,-2.61297 -5.72779,-0.69963 -0.23337,1.90457 2.38677,2.85835 5.25875,2.61575 2.86505,-0.23568 20.06228,-33.92058 20.54056,-36.06683 0.47828,-2.15433 12.18802,21.97517 16.00963,21.73788" />
      <path
         id="path3324"
         style="fill:#8b725e;fill-opacity:1;fill-rule:nonzero;stroke:none"
         d="m 169.90582,470.00747 c 0,0 -14.59328,-1.71118 -7.72409,-18.02672 6.86688,-16.32431 14.02027,-22.05649 28.0567,-20.61865 14.0295,1.43044 25.19396,26.04931 10.30725,35.78609 -14.89133,9.73563 -30.63986,2.85928 -30.63986,2.85928" />
      <path
         id="path3326"
         style="fill:#6e5846;fill-opacity:1;fill-rule:nonzero;stroke:none"
         d="m 176.80735,468.41621 c 0,0 -14.60251,-1.71025 -7.73101,-18.03295 4.37613,-10.40175 8.8701,-16.49576 15.18939,-19.17736 -10.39505,0.61368 -16.48098,6.8216 -22.35433,20.77485 -6.86919,16.31554 7.73333,18.02672 7.73333,18.02672 0,0 11.22221,4.90085 23.67825,0.56862 -9.29293,1.00184 -16.51563,-2.15988 -16.51563,-2.15988" />
      <path
         id="path3328"
         style="fill:#431b1e;fill-opacity:1;fill-rule:nonzero;stroke:none"
         d="m 213.91206,482.93092 c 0,0 -1.34934,-5.5344 -3.1631,-12.64365 l -1.83456,0.2634 c 2.3706,7.96507 4.57022,14.52211 5.30034,14.63209 1.79528,0.2872 3.43806,-0.84565 3.29943,-3.10373 -0.1548,-2.26639 -3.60211,0.85189 -3.60211,0.85189" />
      <path
         id="path3330"
         style="fill:#431b1e;fill-opacity:1;fill-rule:nonzero;stroke:none"
         d="m 224.36257,470.24106 c 0,0 0.0855,-0.21557 0.24491,-0.59288 1.52033,-3.68228 9.64413,-22.99249 11.83682,-21.42203 2.40525,1.72851 13.96943,33.24822 13.96943,33.24822 0,0 3.96948,-2.381 4.13584,-0.65434 0.1756,1.7255 -1.71903,2.58478 -3.79157,2.37984 -2.07023,-0.22274 -14.49392,-30.65327 -14.84281,-32.60173 -0.34658,-1.94778 -8.79386,19.86427 -11.55262,19.64292" />
      <path
         id="path3332"
         style="fill:#8b725e;fill-opacity:1;fill-rule:nonzero;stroke:none"
         d="m 222.86997,451.11893 c 0,0 -11.16446,-5.43967 -19.17967,3.14532 -8.01983,8.58775 3.43806,19.18359 12.89273,18.32176 9.4408,-0.8512 14.30677,-6.00921 14.30677,-6.00921 l -8.01983,-15.45787" />
      <path
         id="path3334"
         style="fill:#6e5846;fill-opacity:1;fill-rule:nonzero;stroke:none"
         d="m 207.13761,452.67576 c 0.82947,-0.88447 1.69361,-1.61552 2.56237,-2.22919 -2.13724,0.70563 -4.29989,1.96302 -6.28001,4.08847 -8.00828,8.58776 3.44037,19.18174 12.89273,18.31899 5.03925,-0.4621 8.76382,-2.13908 11.15521,-3.60742 -2.04019,0.80776 -4.5217,1.48289 -7.43758,1.75369 -9.45697,0.85189 -20.90562,-9.74117 -12.89272,-18.32454" />
      <path
         id="path3336"
         style="fill:#8b725e;fill-opacity:1;fill-rule:nonzero;stroke:none"
         d="m 241.19705,472.58601 c 3.59979,0.0739 6.82991,-0.005 9.72961,-0.23013 20.34186,-1.47296 24.55164,-9.4244 24.05487,-18.95184 -0.57763,-10.87564 -16.88993,-36.35356 -38.36625,-28.34182 -5.36273,2.00554 -9.02029,5.28001 -11.481,9.06627 -1.22227,1.88631 -2.14648,3.90987 -2.85119,5.963 -3.93482,11.48146 -2.1534,28.06039 12.10715,31.54513 1.95933,0.55868 4.22826,0.90595 6.80681,0.94939" />
      <path
         id="path3338"
         style="fill:#6e5846;fill-opacity:1;fill-rule:nonzero;stroke:none"
         d="m 247.03574,469.67082 c -2.58085,-0.0543 -4.84748,-0.4018 -6.81836,-0.95401 -14.26055,-3.48035 -16.03041,-20.06645 -12.10021,-31.5449 0.70009,-2.05244 1.63123,-4.06791 2.85812,-5.96601 1.4487,-2.21925 3.30174,-4.26453 5.67695,-5.98564 -0.10397,0.0317 -0.20332,0.0677 -0.30267,0.10836 -5.36966,2.00531 -9.01567,5.27724 -11.47407,9.05703 -1.23382,1.89809 -2.15572,3.91703 -2.85118,5.97039 -3.94176,11.47592 -2.16497,28.06017 12.09328,31.5486 1.96395,0.55221 4.23519,0.90249 6.81143,0.94939 3.59979,0.0633 6.83684,-0.0171 9.73655,-0.22551 9.17047,-0.67421 15.05306,-2.66264 18.71293,-5.50574 -3.28094,1.13724 -7.4214,1.94499 -12.61315,2.31607 -2.90664,0.22111 -6.14137,0.29228 -9.72962,0.23197" />
      <path
         id="path3340"
         style="fill:#451a11;fill-opacity:1;fill-rule:nonzero;stroke:none"
         d="m 251.2201,425.10912 0,0 c 0.067,-0.26987 6.76984,-27.57449 12.69864,-29.84897 l -0.21719,-0.55499 c -6.21531,2.38539 -12.78413,29.12971 -13.06139,30.27134 l 0.57994,0.13262" />
      <path
         id="path3342"
         style="fill:#451a11;fill-opacity:1;fill-rule:nonzero;stroke:none"
         d="m 263.24176,394.99837 c 0,0 -1.72134,-3.72018 8.59053,-1.71302 0,0 1.43252,7.72847 -6.58731,3.14531 l -2.00322,-1.43229" />
      <path
         id="path3344"
         style="fill:#451a11;fill-opacity:1;fill-rule:nonzero;stroke:none"
         d="m 253.19098,425.38546 0,0 c 0.14556,-0.24468 13.6783,-24.89058 20.00452,-25.55671 l -0.0578,-0.58387 c -6.63352,0.69224 -19.89593,24.83375 -20.46201,25.85523 l 0.51525,0.28535" />
      <path
         id="path3346"
         style="fill:#764c46;fill-opacity:1;fill-rule:nonzero;stroke:none"
         d="m 264.32771,393.68068 1.93159,1.16889 c 2.63631,1.25439 4.23751,1.35097 5.19868,0.90688 0.0762,-1.12638 -0.20332,-2.17328 -0.20332,-2.17328 -3.57669,-0.42144 -5.69313,-0.27703 -6.92695,0.0975" />
      <path
         id="path3348"
         style="fill:#451a11;fill-opacity:1;fill-rule:nonzero;stroke:none"
         d="m 271.48571,400.28023 c 0,0 -1.70979,-3.72041 8.59284,-1.71672 0,0 1.43022,7.73032 -6.58037,3.15155 l -2.01247,-1.43483" />
      <path
         id="path3350"
         style="fill:#764c46;fill-opacity:1;fill-rule:nonzero;stroke:none"
         d="m 272.57628,398.95607 1.92929,1.1779 c 2.63399,1.25623 4.24674,1.3475 5.19868,0.89626 0.0739,-1.11737 -0.19871,-2.16266 -0.19871,-2.16266 -3.57669,-0.42144 -5.69544,-0.28142 -6.92926,0.0885" />
      <path
         id="path3352"
         style="fill:#451a11;fill-opacity:1;fill-rule:nonzero;stroke:none"
         d="m 264.32771,393.68068 -0.16636,0.2798 1.93622,1.17953 0.0185,0.006 c 1.756,0.83664 3.073,1.17051 4.09656,1.17952 0.54298,0 0.99353,-0.0991 1.3817,-0.2798 l 0.16635,-0.0811 0.0185,-0.19408 c 0.007,-0.14903 0.0185,-0.29344 0.0185,-0.43947 0,-0.99098 -0.2195,-1.81514 -0.2195,-1.82762 l -0.0578,-0.21765 -0.22874,-0.0289 c -1.53419,-0.17607 -2.80729,-0.25278 -3.85858,-0.25278 -1.42559,0 -2.44915,0.13355 -3.19545,0.36738 l -0.70471,0.20309 0.62846,0.38632 0.16636,-0.2798 0.0947,0.30684 c 0.66312,-0.19409 1.63354,-0.33388 3.01061,-0.33388 1.02125,0 2.27356,0.0739 3.78464,0.25278 l 0.037,-0.32325 -0.31423,0.0857 0.009,0.0326 c 0.0393,0.14626 0.19408,0.84565 0.19408,1.62915 0,0.12985 0,0.25901 -0.0139,0.3988 l 0.32809,0.027 -0.14094,-0.30221 c -0.28419,0.13077 -0.64463,0.21464 -1.10443,0.21464 -0.87569,0.0109 -2.11644,-0.30036 -3.81236,-1.10997 l -0.14095,0.29066 0.16867,-0.27541 -1.92697,-1.17329 -0.17329,0.27981 0.0947,0.30684 -0.0947,-0.30684" />
      <path
         id="path3354"
         style="fill:#431b1e;fill-opacity:1;fill-rule:nonzero;stroke:none"
         d="m 213.36678,470.6997 c 0,0 0.10859,-0.21673 0.30961,-0.61206 1.9316,-3.76361 12.22267,-23.54471 15.00224,-21.93635 3.04989,1.75808 17.70554,34.05413 17.70554,34.05413 0,0 5.02077,-2.44408 5.23565,-0.67237 0.22181,1.77795 -2.17882,2.65965 -4.80358,2.44038 -2.62244,-0.22551 -18.35943,-31.40419 -18.80074,-33.39147 -0.43899,-1.99467 -11.14828,20.34163 -14.64872,20.11774" />
      <path
         id="path3356"
         style="fill:#431b1e;fill-opacity:1;fill-rule:nonzero;stroke:none"
         d="m 207.47494,469.37115 c 0,0 0.0716,-0.29159 0.20795,-0.78974 1.32393,-4.8223 8.38027,-30.10729 10.28183,-28.06294 2.09796,2.26709 12.13488,43.55246 12.13488,43.55246 0,0 3.44961,-3.1065 3.60211,-0.84842 0.14787,2.26085 -1.50416,3.39809 -3.29481,3.1065 -1.79759,-0.27703 -12.59236,-40.14883 -12.89273,-42.69849 -0.30268,-2.54343 -7.64321,26.01766 -10.03923,25.74063" />
      <path
         id="path3358"
         style="fill:#ffffff;fill-opacity:1;fill-rule:nonzero;stroke:none"
         d="m 263.84943,443.08339 c 0,7.1104 -5.75783,12.87493 -12.88349,12.87493 -7.10948,0 -12.86962,-5.76453 -12.86962,-12.87493 0,-7.11549 5.76014,-12.88279 12.86962,-12.88279 7.12566,0 12.88349,5.7673 12.88349,12.88279" />
      <path
         id="path3360"
         style="fill:#edf2f7;fill-opacity:1;fill-rule:nonzero;stroke:none"
         d="m 251.22703,451.93108 c -6.79063,0 -12.32664,-4.86643 -12.60853,-10.97037 -0.34196,1.05152 -0.52218,2.15086 -0.52218,3.29873 0,6.32252 5.64461,11.43525 12.61316,11.43525 6.97085,0 12.62008,-5.11273 12.62008,-11.43525 0,-0.15965 0,-0.32486 -0.0139,-0.48105 -1.56192,4.71578 -6.37474,8.15269 -12.08867,8.15269" />
      <path
         id="path3362"
         style="fill:#451a11;fill-opacity:1;fill-rule:nonzero;stroke:none"
         d="m 257.69419,441.55913 c 0,4.81236 -3.90941,8.72501 -8.72223,8.72501 -4.81975,0 -8.71992,-3.91265 -8.71992,-8.72501 0,-4.82414 3.90017,-8.7213 8.71992,-8.7213 4.81282,0 8.72223,3.89716 8.72223,8.7213" />
      <path
         id="path3364"
         style="fill:#451a11;fill-opacity:1;fill-rule:nonzero;stroke:none"
         d="m 257.69419,441.55913 -0.32347,0 c 0,2.31954 -0.94501,4.41079 -2.46071,5.93874 -1.52495,1.51548 -3.61366,2.45679 -5.93805,2.45679 -2.32208,0 -4.41772,-0.94131 -5.93343,-2.45679 -1.53187,-1.52795 -2.46533,-3.6192 -2.46533,-5.93874 0,-2.32693 0.93346,-4.42072 2.46533,-5.94151 1.51571,-1.52079 3.61135,-2.4577 5.93343,-2.4577 2.32439,0 4.4131,0.93691 5.93805,2.4577 1.5157,1.52079 2.46071,3.61458 2.46071,5.94151 l 0.65157,0 c 0,-5.00297 -4.05035,-9.05078 -9.05033,-9.05078 -4.99997,0 -9.04801,4.04781 -9.04801,9.05078 0,4.99559 4.04804,9.04085 9.04801,9.04085 4.99998,0 9.05033,-4.04526 9.05033,-9.04085 l -0.3281,0" />
      <path
         id="path3366"
         style="fill:#764c46;fill-opacity:1;fill-rule:nonzero;stroke:none"
         d="m 249.91003,439.4353 c 0,2.10027 -1.69823,3.80428 -3.80312,3.80428 -2.10027,0 -3.80543,-1.70401 -3.80543,-3.80428 0,-2.10743 1.70516,-3.8059 3.80543,-3.8059 2.10489,0 3.80312,1.69847 3.80312,3.8059" />
      <path
         id="path3368"
         style="fill:#451a11;fill-opacity:1;fill-rule:nonzero;stroke:none"
         d="m 249.91003,439.4353 -0.32578,0 c 0,0.95402 -0.38586,1.82323 -1.02356,2.45955 -0.62615,0.62269 -1.4926,1.01363 -2.45378,1.01363 -0.95656,0 -1.82762,-0.39094 -2.4584,-1.01363 -0.62846,-0.63632 -1.01663,-1.50553 -1.01663,-2.45955 0,-0.96118 0.38817,-1.82763 1.01663,-2.46579 0.63078,-0.62708 1.50184,-1.0134 2.4584,-1.0134 0.96118,0 1.82763,0.38632 2.45378,1.0134 0.6377,0.63816 1.02356,1.50461 1.02356,2.46579 l 0.65619,0 c 0,-2.28788 -1.85535,-4.13815 -4.13353,-4.13815 -2.28511,0 -4.1266,1.85027 -4.1266,4.13815 0,2.28349 1.84149,4.13099 4.1266,4.13099 2.27818,0 4.13353,-1.8475 4.13353,-4.13099 l -0.33041,0" />
      <path
         id="path3370"
         style="fill:#ffffff;fill-opacity:1;fill-rule:nonzero;stroke:none"
         d="m 247.29452,438.80822 c 0,1.10374 -0.88493,1.99445 -1.98705,1.99445 -1.09057,0 -1.98474,-0.89071 -1.98474,-1.99445 0,-1.09218 0.89417,-1.98843 1.98474,-1.98843 1.10212,0 1.98705,0.89625 1.98705,1.98843" />
      <path
         id="path3372"
         style="fill:#431b1e;fill-opacity:1;fill-rule:nonzero;stroke:none"
         d="m 207.41487,469.43885 c 0,0 -0.14325,-0.28535 -0.41127,-0.79529 -2.52772,-4.88445 -16.00501,-30.48067 -19.6256,-28.40951 -4.02031,2.29435 -23.19304,44.10121 -23.19304,44.10121 0,0 -6.59193,-3.14786 -6.88074,-0.86645 -0.28189,2.29158 2.86967,3.43783 6.3008,3.15179 3.44037,-0.29159 24.04793,-40.65807 24.62557,-43.23477 0.57069,-2.5723 14.60482,26.33906 19.18428,26.05302" />
    </g>
    <g
       id="g3374"
       transform="matrix(0.21373165,0.11676613,-0.11395884,0.2072794,252.31536,103.07417)">
      <path
         d="m 197.39644,467.86746 c 0,0 -0.12477,-0.23637 -0.34427,-0.66959 -2.10951,-4.06606 -13.35021,-25.43218 -16.377,-23.69928 -3.34795,1.91796 -19.35988,36.7817 -19.35988,36.7817 0,0 -5.49212,-2.61297 -5.72779,-0.69963 -0.23337,1.90457 2.38677,2.85835 5.25875,2.61575 2.86505,-0.23568 20.06228,-33.92058 20.54056,-36.06683 0.47828,-2.15433 12.18802,21.97517 16.00963,21.73788"
         style="fill:#431b1e;fill-opacity:1;fill-rule:nonzero;stroke:none"
         id="path3376" />
      <path
         d="m 169.90582,470.00747 c 0,0 -14.59328,-1.71118 -7.72409,-18.02672 6.86688,-16.32431 14.02027,-22.05649 28.0567,-20.61865 14.0295,1.43044 25.19396,26.04931 10.30725,35.78609 -14.89133,9.73563 -30.63986,2.85928 -30.63986,2.85928"
         style="fill:#8b725e;fill-opacity:1;fill-rule:nonzero;stroke:none"
         id="path3378" />
      <path
         d="m 176.80735,468.41621 c 0,0 -14.60251,-1.71025 -7.73101,-18.03295 4.37613,-10.40175 8.8701,-16.49576 15.18939,-19.17736 -10.39505,0.61368 -16.48098,6.8216 -22.35433,20.77485 -6.86919,16.31554 7.73333,18.02672 7.73333,18.02672 0,0 11.22221,4.90085 23.67825,0.56862 -9.29293,1.00184 -16.51563,-2.15988 -16.51563,-2.15988"
         style="fill:#6e5846;fill-opacity:1;fill-rule:nonzero;stroke:none"
         id="path3380" />
      <path
         d="m 213.91206,482.93092 c 0,0 -1.34934,-5.5344 -3.1631,-12.64365 l -1.83456,0.2634 c 2.3706,7.96507 4.57022,14.52211 5.30034,14.63209 1.79528,0.2872 3.43806,-0.84565 3.29943,-3.10373 -0.1548,-2.26639 -3.60211,0.85189 -3.60211,0.85189"
         style="fill:#431b1e;fill-opacity:1;fill-rule:nonzero;stroke:none"
         id="path3382" />
      <path
         d="m 224.36257,470.24106 c 0,0 0.0855,-0.21557 0.24491,-0.59288 1.52033,-3.68228 9.64413,-22.99249 11.83682,-21.42203 2.40525,1.72851 13.96943,33.24822 13.96943,33.24822 0,0 3.96948,-2.381 4.13584,-0.65434 0.1756,1.7255 -1.71903,2.58478 -3.79157,2.37984 -2.07023,-0.22274 -14.49392,-30.65327 -14.84281,-32.60173 -0.34658,-1.94778 -8.79386,19.86427 -11.55262,19.64292"
         style="fill:#431b1e;fill-opacity:1;fill-rule:nonzero;stroke:none"
         id="path3384" />
      <path
         d="m 222.86997,451.11893 c 0,0 -11.16446,-5.43967 -19.17967,3.14532 -8.01983,8.58775 3.43806,19.18359 12.89273,18.32176 9.4408,-0.8512 14.30677,-6.00921 14.30677,-6.00921 l -8.01983,-15.45787"
         style="fill:#8b725e;fill-opacity:1;fill-rule:nonzero;stroke:none"
         id="path3386" />
      <path
         d="m 207.13761,452.67576 c 0.82947,-0.88447 1.69361,-1.61552 2.56237,-2.22919 -2.13724,0.70563 -4.29989,1.96302 -6.28001,4.08847 -8.00828,8.58776 3.44037,19.18174 12.89273,18.31899 5.03925,-0.4621 8.76382,-2.13908 11.15521,-3.60742 -2.04019,0.80776 -4.5217,1.48289 -7.43758,1.75369 -9.45697,0.85189 -20.90562,-9.74117 -12.89272,-18.32454"
         style="fill:#6e5846;fill-opacity:1;fill-rule:nonzero;stroke:none"
         id="path3388" />
      <path
         d="m 241.19705,472.58601 c 3.59979,0.0739 6.82991,-0.005 9.72961,-0.23013 20.34186,-1.47296 24.55164,-9.4244 24.05487,-18.95184 -0.57763,-10.87564 -16.88993,-36.35356 -38.36625,-28.34182 -5.36273,2.00554 -9.02029,5.28001 -11.481,9.06627 -1.22227,1.88631 -2.14648,3.90987 -2.85119,5.963 -3.93482,11.48146 -2.1534,28.06039 12.10715,31.54513 1.95933,0.55868 4.22826,0.90595 6.80681,0.94939"
         style="fill:#8b725e;fill-opacity:1;fill-rule:nonzero;stroke:none"
         id="path3390" />
      <path
         d="m 247.03574,469.67082 c -2.58085,-0.0543 -4.84748,-0.4018 -6.81836,-0.95401 -14.26055,-3.48035 -16.03041,-20.06645 -12.10021,-31.5449 0.70009,-2.05244 1.63123,-4.06791 2.85812,-5.96601 1.4487,-2.21925 3.30174,-4.26453 5.67695,-5.98564 -0.10397,0.0317 -0.20332,0.0677 -0.30267,0.10836 -5.36966,2.00531 -9.01567,5.27724 -11.47407,9.05703 -1.23382,1.89809 -2.15572,3.91703 -2.85118,5.97039 -3.94176,11.47592 -2.16497,28.06017 12.09328,31.5486 1.96395,0.55221 4.23519,0.90249 6.81143,0.94939 3.59979,0.0633 6.83684,-0.0171 9.73655,-0.22551 9.17047,-0.67421 15.05306,-2.66264 18.71293,-5.50574 -3.28094,1.13724 -7.4214,1.94499 -12.61315,2.31607 -2.90664,0.22111 -6.14137,0.29228 -9.72962,0.23197"
         style="fill:#6e5846;fill-opacity:1;fill-rule:nonzero;stroke:none"
         id="path3392" />
      <path
         d="m 251.2201,425.10912 0,0 c 0.067,-0.26987 6.76984,-27.57449 12.69864,-29.84897 l -0.21719,-0.55499 c -6.21531,2.38539 -12.78413,29.12971 -13.06139,30.27134 l 0.57994,0.13262"
         style="fill:#451a11;fill-opacity:1;fill-rule:nonzero;stroke:none"
         id="path3394" />
      <path
         d="m 263.24176,394.99837 c 0,0 -1.72134,-3.72018 8.59053,-1.71302 0,0 1.43252,7.72847 -6.58731,3.14531 l -2.00322,-1.43229"
         style="fill:#451a11;fill-opacity:1;fill-rule:nonzero;stroke:none"
         id="path3396" />
      <path
         d="m 253.19098,425.38546 0,0 c 0.14556,-0.24468 13.6783,-24.89058 20.00452,-25.55671 l -0.0578,-0.58387 c -6.63352,0.69224 -19.89593,24.83375 -20.46201,25.85523 l 0.51525,0.28535"
         style="fill:#451a11;fill-opacity:1;fill-rule:nonzero;stroke:none"
         id="path3398" />
      <path
         d="m 264.32771,393.68068 1.93159,1.16889 c 2.63631,1.25439 4.23751,1.35097 5.19868,0.90688 0.0762,-1.12638 -0.20332,-2.17328 -0.20332,-2.17328 -3.57669,-0.42144 -5.69313,-0.27703 -6.92695,0.0975"
         style="fill:#764c46;fill-opacity:1;fill-rule:nonzero;stroke:none"
         id="path3400" />
      <path
         d="m 271.48571,400.28023 c 0,0 -1.70979,-3.72041 8.59284,-1.71672 0,0 1.43022,7.73032 -6.58037,3.15155 l -2.01247,-1.43483"
         style="fill:#451a11;fill-opacity:1;fill-rule:nonzero;stroke:none"
         id="path3402" />
      <path
         d="m 272.57628,398.95607 1.92929,1.1779 c 2.63399,1.25623 4.24674,1.3475 5.19868,0.89626 0.0739,-1.11737 -0.19871,-2.16266 -0.19871,-2.16266 -3.57669,-0.42144 -5.69544,-0.28142 -6.92926,0.0885"
         style="fill:#764c46;fill-opacity:1;fill-rule:nonzero;stroke:none"
         id="path3404" />
      <path
         d="m 264.32771,393.68068 -0.16636,0.2798 1.93622,1.17953 0.0185,0.006 c 1.756,0.83664 3.073,1.17051 4.09656,1.17952 0.54298,0 0.99353,-0.0991 1.3817,-0.2798 l 0.16635,-0.0811 0.0185,-0.19408 c 0.007,-0.14903 0.0185,-0.29344 0.0185,-0.43947 0,-0.99098 -0.2195,-1.81514 -0.2195,-1.82762 l -0.0578,-0.21765 -0.22874,-0.0289 c -1.53419,-0.17607 -2.80729,-0.25278 -3.85858,-0.25278 -1.42559,0 -2.44915,0.13355 -3.19545,0.36738 l -0.70471,0.20309 0.62846,0.38632 0.16636,-0.2798 0.0947,0.30684 c 0.66312,-0.19409 1.63354,-0.33388 3.01061,-0.33388 1.02125,0 2.27356,0.0739 3.78464,0.25278 l 0.037,-0.32325 -0.31423,0.0857 0.009,0.0326 c 0.0393,0.14626 0.19408,0.84565 0.19408,1.62915 0,0.12985 0,0.25901 -0.0139,0.3988 l 0.32809,0.027 -0.14094,-0.30221 c -0.28419,0.13077 -0.64463,0.21464 -1.10443,0.21464 -0.87569,0.0109 -2.11644,-0.30036 -3.81236,-1.10997 l -0.14095,0.29066 0.16867,-0.27541 -1.92697,-1.17329 -0.17329,0.27981 0.0947,0.30684 -0.0947,-0.30684"
         style="fill:#451a11;fill-opacity:1;fill-rule:nonzero;stroke:none"
         id="path3406" />
      <path
         d="m 213.36678,470.6997 c 0,0 0.10859,-0.21673 0.30961,-0.61206 1.9316,-3.76361 12.22267,-23.54471 15.00224,-21.93635 3.04989,1.75808 17.70554,34.05413 17.70554,34.05413 0,0 5.02077,-2.44408 5.23565,-0.67237 0.22181,1.77795 -2.17882,2.65965 -4.80358,2.44038 -2.62244,-0.22551 -18.35943,-31.40419 -18.80074,-33.39147 -0.43899,-1.99467 -11.14828,20.34163 -14.64872,20.11774"
         style="fill:#431b1e;fill-opacity:1;fill-rule:nonzero;stroke:none"
         id="path3408" />
      <path
         d="m 207.47494,469.37115 c 0,0 0.0716,-0.29159 0.20795,-0.78974 1.32393,-4.8223 8.38027,-30.10729 10.28183,-28.06294 2.09796,2.26709 12.13488,43.55246 12.13488,43.55246 0,0 3.44961,-3.1065 3.60211,-0.84842 0.14787,2.26085 -1.50416,3.39809 -3.29481,3.1065 -1.79759,-0.27703 -12.59236,-40.14883 -12.89273,-42.69849 -0.30268,-2.54343 -7.64321,26.01766 -10.03923,25.74063"
         style="fill:#431b1e;fill-opacity:1;fill-rule:nonzero;stroke:none"
         id="path3410" />
      <path
         d="m 263.84943,443.08339 c 0,7.1104 -5.75783,12.87493 -12.88349,12.87493 -7.10948,0 -12.86962,-5.76453 -12.86962,-12.87493 0,-7.11549 5.76014,-12.88279 12.86962,-12.88279 7.12566,0 12.88349,5.7673 12.88349,12.88279"
         style="fill:#ffffff;fill-opacity:1;fill-rule:nonzero;stroke:none"
         id="path3412" />
      <path
         d="m 251.22703,451.93108 c -6.79063,0 -12.32664,-4.86643 -12.60853,-10.97037 -0.34196,1.05152 -0.52218,2.15086 -0.52218,3.29873 0,6.32252 5.64461,11.43525 12.61316,11.43525 6.97085,0 12.62008,-5.11273 12.62008,-11.43525 0,-0.15965 0,-0.32486 -0.0139,-0.48105 -1.56192,4.71578 -6.37474,8.15269 -12.08867,8.15269"
         style="fill:#edf2f7;fill-opacity:1;fill-rule:nonzero;stroke:none"
         id="path3414" />
      <path
         d="m 257.69419,441.55913 c 0,4.81236 -3.90941,8.72501 -8.72223,8.72501 -4.81975,0 -8.71992,-3.91265 -8.71992,-8.72501 0,-4.82414 3.90017,-8.7213 8.71992,-8.7213 4.81282,0 8.72223,3.89716 8.72223,8.7213"
         style="fill:#451a11;fill-opacity:1;fill-rule:nonzero;stroke:none"
         id="path3416" />
      <path
         d="m 257.69419,441.55913 -0.32347,0 c 0,2.31954 -0.94501,4.41079 -2.46071,5.93874 -1.52495,1.51548 -3.61366,2.45679 -5.93805,2.45679 -2.32208,0 -4.41772,-0.94131 -5.93343,-2.45679 -1.53187,-1.52795 -2.46533,-3.6192 -2.46533,-5.93874 0,-2.32693 0.93346,-4.42072 2.46533,-5.94151 1.51571,-1.52079 3.61135,-2.4577 5.93343,-2.4577 2.32439,0 4.4131,0.93691 5.93805,2.4577 1.5157,1.52079 2.46071,3.61458 2.46071,5.94151 l 0.65157,0 c 0,-5.00297 -4.05035,-9.05078 -9.05033,-9.05078 -4.99997,0 -9.04801,4.04781 -9.04801,9.05078 0,4.99559 4.04804,9.04085 9.04801,9.04085 4.99998,0 9.05033,-4.04526 9.05033,-9.04085 l -0.3281,0"
         style="fill:#451a11;fill-opacity:1;fill-rule:nonzero;stroke:none"
         id="path3418" />
      <path
         d="m 249.91003,439.4353 c 0,2.10027 -1.69823,3.80428 -3.80312,3.80428 -2.10027,0 -3.80543,-1.70401 -3.80543,-3.80428 0,-2.10743 1.70516,-3.8059 3.80543,-3.8059 2.10489,0 3.80312,1.69847 3.80312,3.8059"
         style="fill:#764c46;fill-opacity:1;fill-rule:nonzero;stroke:none"
         id="path3420" />
      <path
         d="m 249.91003,439.4353 -0.32578,0 c 0,0.95402 -0.38586,1.82323 -1.02356,2.45955 -0.62615,0.62269 -1.4926,1.01363 -2.45378,1.01363 -0.95656,0 -1.82762,-0.39094 -2.4584,-1.01363 -0.62846,-0.63632 -1.01663,-1.50553 -1.01663,-2.45955 0,-0.96118 0.38817,-1.82763 1.01663,-2.46579 0.63078,-0.62708 1.50184,-1.0134 2.4584,-1.0134 0.96118,0 1.82763,0.38632 2.45378,1.0134 0.6377,0.63816 1.02356,1.50461 1.02356,2.46579 l 0.65619,0 c 0,-2.28788 -1.85535,-4.13815 -4.13353,-4.13815 -2.28511,0 -4.1266,1.85027 -4.1266,4.13815 0,2.28349 1.84149,4.13099 4.1266,4.13099 2.27818,0 4.13353,-1.8475 4.13353,-4.13099 l -0.33041,0"
         style="fill:#451a11;fill-opacity:1;fill-rule:nonzero;stroke:none"
         id="path3422" />
      <path
         d="m 247.29452,438.80822 c 0,1.10374 -0.88493,1.99445 -1.98705,1.99445 -1.09057,0 -1.98474,-0.89071 -1.98474,-1.99445 0,-1.09218 0.89417,-1.98843 1.98474,-1.98843 1.10212,0 1.98705,0.89625 1.98705,1.98843"
         style="fill:#ffffff;fill-opacity:1;fill-rule:nonzero;stroke:none"
         id="path3424" />
      <path
         d="m 207.41487,469.43885 c 0,0 -0.14325,-0.28535 -0.41127,-0.79529 -2.52772,-4.88445 -16.00501,-30.48067 -19.6256,-28.40951 -4.02031,2.29435 -23.19304,44.10121 -23.19304,44.10121 0,0 -6.59193,-3.14786 -6.88074,-0.86645 -0.28189,2.29158 2.86967,3.43783 6.3008,3.15179 3.44037,-0.29159 24.04793,-40.65807 24.62557,-43.23477 0.57069,-2.5723 14.60482,26.33906 19.18428,26.05302"
         style="fill:#431b1e;fill-opacity:1;fill-rule:nonzero;stroke:none"
         id="path3426" />
    </g>
    <g
       transform="matrix(0.21458435,0.11519158,-0.1124318,0.20811165,281.26886,122.24138)"
       id="g3428">
      <path
         id="path3430"
         style="fill:#431b1e;fill-opacity:1;fill-rule:nonzero;stroke:none"
         d="m 197.39644,467.86746 c 0,0 -0.12477,-0.23637 -0.34427,-0.66959 -2.10951,-4.06606 -13.35021,-25.43218 -16.377,-23.69928 -3.34795,1.91796 -19.35988,36.7817 -19.35988,36.7817 0,0 -5.49212,-2.61297 -5.72779,-0.69963 -0.23337,1.90457 2.38677,2.85835 5.25875,2.61575 2.86505,-0.23568 20.06228,-33.92058 20.54056,-36.06683 0.47828,-2.15433 12.18802,21.97517 16.00963,21.73788" />
      <path
         id="path3432"
         style="fill:#8b725e;fill-opacity:1;fill-rule:nonzero;stroke:none"
         d="m 169.90582,470.00747 c 0,0 -14.59328,-1.71118 -7.72409,-18.02672 6.86688,-16.32431 14.02027,-22.05649 28.0567,-20.61865 14.0295,1.43044 25.19396,26.04931 10.30725,35.78609 -14.89133,9.73563 -30.63986,2.85928 -30.63986,2.85928" />
      <path
         id="path3434"
         style="fill:#6e5846;fill-opacity:1;fill-rule:nonzero;stroke:none"
         d="m 176.80735,468.41621 c 0,0 -14.60251,-1.71025 -7.73101,-18.03295 4.37613,-10.40175 8.8701,-16.49576 15.18939,-19.17736 -10.39505,0.61368 -16.48098,6.8216 -22.35433,20.77485 -6.86919,16.31554 7.73333,18.02672 7.73333,18.02672 0,0 11.22221,4.90085 23.67825,0.56862 -9.29293,1.00184 -16.51563,-2.15988 -16.51563,-2.15988" />
      <path
         id="path3436"
         style="fill:#431b1e;fill-opacity:1;fill-rule:nonzero;stroke:none"
         d="m 213.91206,482.93092 c 0,0 -1.34934,-5.5344 -3.1631,-12.64365 l -1.83456,0.2634 c 2.3706,7.96507 4.57022,14.52211 5.30034,14.63209 1.79528,0.2872 3.43806,-0.84565 3.29943,-3.10373 -0.1548,-2.26639 -3.60211,0.85189 -3.60211,0.85189" />
      <path
         id="path3438"
         style="fill:#431b1e;fill-opacity:1;fill-rule:nonzero;stroke:none"
         d="m 224.36257,470.24106 c 0,0 0.0855,-0.21557 0.24491,-0.59288 1.52033,-3.68228 9.64413,-22.99249 11.83682,-21.42203 2.40525,1.72851 13.96943,33.24822 13.96943,33.24822 0,0 3.96948,-2.381 4.13584,-0.65434 0.1756,1.7255 -1.71903,2.58478 -3.79157,2.37984 -2.07023,-0.22274 -14.49392,-30.65327 -14.84281,-32.60173 -0.34658,-1.94778 -8.79386,19.86427 -11.55262,19.64292" />
      <path
         id="path3440"
         style="fill:#8b725e;fill-opacity:1;fill-rule:nonzero;stroke:none"
         d="m 222.86997,451.11893 c 0,0 -11.16446,-5.43967 -19.17967,3.14532 -8.01983,8.58775 3.43806,19.18359 12.89273,18.32176 9.4408,-0.8512 14.30677,-6.00921 14.30677,-6.00921 l -8.01983,-15.45787" />
      <path
         id="path3442"
         style="fill:#6e5846;fill-opacity:1;fill-rule:nonzero;stroke:none"
         d="m 207.13761,452.67576 c 0.82947,-0.88447 1.69361,-1.61552 2.56237,-2.22919 -2.13724,0.70563 -4.29989,1.96302 -6.28001,4.08847 -8.00828,8.58776 3.44037,19.18174 12.89273,18.31899 5.03925,-0.4621 8.76382,-2.13908 11.15521,-3.60742 -2.04019,0.80776 -4.5217,1.48289 -7.43758,1.75369 -9.45697,0.85189 -20.90562,-9.74117 -12.89272,-18.32454" />
      <path
         id="path3444"
         style="fill:#8b725e;fill-opacity:1;fill-rule:nonzero;stroke:none"
         d="m 241.19705,472.58601 c 3.59979,0.0739 6.82991,-0.005 9.72961,-0.23013 20.34186,-1.47296 24.55164,-9.4244 24.05487,-18.95184 -0.57763,-10.87564 -16.88993,-36.35356 -38.36625,-28.34182 -5.36273,2.00554 -9.02029,5.28001 -11.481,9.06627 -1.22227,1.88631 -2.14648,3.90987 -2.85119,5.963 -3.93482,11.48146 -2.1534,28.06039 12.10715,31.54513 1.95933,0.55868 4.22826,0.90595 6.80681,0.94939" />
      <path
         id="path3446"
         style="fill:#6e5846;fill-opacity:1;fill-rule:nonzero;stroke:none"
         d="m 247.03574,469.67082 c -2.58085,-0.0543 -4.84748,-0.4018 -6.81836,-0.95401 -14.26055,-3.48035 -16.03041,-20.06645 -12.10021,-31.5449 0.70009,-2.05244 1.63123,-4.06791 2.85812,-5.96601 1.4487,-2.21925 3.30174,-4.26453 5.67695,-5.98564 -0.10397,0.0317 -0.20332,0.0677 -0.30267,0.10836 -5.36966,2.00531 -9.01567,5.27724 -11.47407,9.05703 -1.23382,1.89809 -2.15572,3.91703 -2.85118,5.97039 -3.94176,11.47592 -2.16497,28.06017 12.09328,31.5486 1.96395,0.55221 4.23519,0.90249 6.81143,0.94939 3.59979,0.0633 6.83684,-0.0171 9.73655,-0.22551 9.17047,-0.67421 15.05306,-2.66264 18.71293,-5.50574 -3.28094,1.13724 -7.4214,1.94499 -12.61315,2.31607 -2.90664,0.22111 -6.14137,0.29228 -9.72962,0.23197" />
      <path
         id="path3448"
         style="fill:#451a11;fill-opacity:1;fill-rule:nonzero;stroke:none"
         d="m 251.2201,425.10912 0,0 c 0.067,-0.26987 6.76984,-27.57449 12.69864,-29.84897 l -0.21719,-0.55499 c -6.21531,2.38539 -12.78413,29.12971 -13.06139,30.27134 l 0.57994,0.13262" />
      <path
         id="path3450"
         style="fill:#451a11;fill-opacity:1;fill-rule:nonzero;stroke:none"
         d="m 263.24176,394.99837 c 0,0 -1.72134,-3.72018 8.59053,-1.71302 0,0 1.43252,7.72847 -6.58731,3.14531 l -2.00322,-1.43229" />
      <path
         id="path3452"
         style="fill:#451a11;fill-opacity:1;fill-rule:nonzero;stroke:none"
         d="m 253.19098,425.38546 0,0 c 0.14556,-0.24468 13.6783,-24.89058 20.00452,-25.55671 l -0.0578,-0.58387 c -6.63352,0.69224 -19.89593,24.83375 -20.46201,25.85523 l 0.51525,0.28535" />
      <path
         id="path3454"
         style="fill:#764c46;fill-opacity:1;fill-rule:nonzero;stroke:none"
         d="m 264.32771,393.68068 1.93159,1.16889 c 2.63631,1.25439 4.23751,1.35097 5.19868,0.90688 0.0762,-1.12638 -0.20332,-2.17328 -0.20332,-2.17328 -3.57669,-0.42144 -5.69313,-0.27703 -6.92695,0.0975" />
      <path
         id="path3456"
         style="fill:#451a11;fill-opacity:1;fill-rule:nonzero;stroke:none"
         d="m 271.48571,400.28023 c 0,0 -1.70979,-3.72041 8.59284,-1.71672 0,0 1.43022,7.73032 -6.58037,3.15155 l -2.01247,-1.43483" />
      <path
         id="path3458"
         style="fill:#764c46;fill-opacity:1;fill-rule:nonzero;stroke:none"
         d="m 272.57628,398.95607 1.92929,1.1779 c 2.63399,1.25623 4.24674,1.3475 5.19868,0.89626 0.0739,-1.11737 -0.19871,-2.16266 -0.19871,-2.16266 -3.57669,-0.42144 -5.69544,-0.28142 -6.92926,0.0885" />
      <path
         id="path3460"
         style="fill:#451a11;fill-opacity:1;fill-rule:nonzero;stroke:none"
         d="m 264.32771,393.68068 -0.16636,0.2798 1.93622,1.17953 0.0185,0.006 c 1.756,0.83664 3.073,1.17051 4.09656,1.17952 0.54298,0 0.99353,-0.0991 1.3817,-0.2798 l 0.16635,-0.0811 0.0185,-0.19408 c 0.007,-0.14903 0.0185,-0.29344 0.0185,-0.43947 0,-0.99098 -0.2195,-1.81514 -0.2195,-1.82762 l -0.0578,-0.21765 -0.22874,-0.0289 c -1.53419,-0.17607 -2.80729,-0.25278 -3.85858,-0.25278 -1.42559,0 -2.44915,0.13355 -3.19545,0.36738 l -0.70471,0.20309 0.62846,0.38632 0.16636,-0.2798 0.0947,0.30684 c 0.66312,-0.19409 1.63354,-0.33388 3.01061,-0.33388 1.02125,0 2.27356,0.0739 3.78464,0.25278 l 0.037,-0.32325 -0.31423,0.0857 0.009,0.0326 c 0.0393,0.14626 0.19408,0.84565 0.19408,1.62915 0,0.12985 0,0.25901 -0.0139,0.3988 l 0.32809,0.027 -0.14094,-0.30221 c -0.28419,0.13077 -0.64463,0.21464 -1.10443,0.21464 -0.87569,0.0109 -2.11644,-0.30036 -3.81236,-1.10997 l -0.14095,0.29066 0.16867,-0.27541 -1.92697,-1.17329 -0.17329,0.27981 0.0947,0.30684 -0.0947,-0.30684" />
      <path
         id="path3462"
         style="fill:#431b1e;fill-opacity:1;fill-rule:nonzero;stroke:none"
         d="m 213.36678,470.6997 c 0,0 0.10859,-0.21673 0.30961,-0.61206 1.9316,-3.76361 12.22267,-23.54471 15.00224,-21.93635 3.04989,1.75808 17.70554,34.05413 17.70554,34.05413 0,0 5.02077,-2.44408 5.23565,-0.67237 0.22181,1.77795 -2.17882,2.65965 -4.80358,2.44038 -2.62244,-0.22551 -18.35943,-31.40419 -18.80074,-33.39147 -0.43899,-1.99467 -11.14828,20.34163 -14.64872,20.11774" />
      <path
         id="path3464"
         style="fill:#431b1e;fill-opacity:1;fill-rule:nonzero;stroke:none"
         d="m 207.47494,469.37115 c 0,0 0.0716,-0.29159 0.20795,-0.78974 1.32393,-4.8223 8.38027,-30.10729 10.28183,-28.06294 2.09796,2.26709 12.13488,43.55246 12.13488,43.55246 0,0 3.44961,-3.1065 3.60211,-0.84842 0.14787,2.26085 -1.50416,3.39809 -3.29481,3.1065 -1.79759,-0.27703 -12.59236,-40.14883 -12.89273,-42.69849 -0.30268,-2.54343 -7.64321,26.01766 -10.03923,25.74063" />
      <path
         id="path3466"
         style="fill:#ffffff;fill-opacity:1;fill-rule:nonzero;stroke:none"
         d="m 263.84943,443.08339 c 0,7.1104 -5.75783,12.87493 -12.88349,12.87493 -7.10948,0 -12.86962,-5.76453 -12.86962,-12.87493 0,-7.11549 5.76014,-12.88279 12.86962,-12.88279 7.12566,0 12.88349,5.7673 12.88349,12.88279" />
      <path
         id="path3468"
         style="fill:#edf2f7;fill-opacity:1;fill-rule:nonzero;stroke:none"
         d="m 251.22703,451.93108 c -6.79063,0 -12.32664,-4.86643 -12.60853,-10.97037 -0.34196,1.05152 -0.52218,2.15086 -0.52218,3.29873 0,6.32252 5.64461,11.43525 12.61316,11.43525 6.97085,0 12.62008,-5.11273 12.62008,-11.43525 0,-0.15965 0,-0.32486 -0.0139,-0.48105 -1.56192,4.71578 -6.37474,8.15269 -12.08867,8.15269" />
      <path
         id="path3470"
         style="fill:#451a11;fill-opacity:1;fill-rule:nonzero;stroke:none"
         d="m 257.69419,441.55913 c 0,4.81236 -3.90941,8.72501 -8.72223,8.72501 -4.81975,0 -8.71992,-3.91265 -8.71992,-8.72501 0,-4.82414 3.90017,-8.7213 8.71992,-8.7213 4.81282,0 8.72223,3.89716 8.72223,8.7213" />
      <path
         id="path3472"
         style="fill:#451a11;fill-opacity:1;fill-rule:nonzero;stroke:none"
         d="m 257.69419,441.55913 -0.32347,0 c 0,2.31954 -0.94501,4.41079 -2.46071,5.93874 -1.52495,1.51548 -3.61366,2.45679 -5.93805,2.45679 -2.32208,0 -4.41772,-0.94131 -5.93343,-2.45679 -1.53187,-1.52795 -2.46533,-3.6192 -2.46533,-5.93874 0,-2.32693 0.93346,-4.42072 2.46533,-5.94151 1.51571,-1.52079 3.61135,-2.4577 5.93343,-2.4577 2.32439,0 4.4131,0.93691 5.93805,2.4577 1.5157,1.52079 2.46071,3.61458 2.46071,5.94151 l 0.65157,0 c 0,-5.00297 -4.05035,-9.05078 -9.05033,-9.05078 -4.99997,0 -9.04801,4.04781 -9.04801,9.05078 0,4.99559 4.04804,9.04085 9.04801,9.04085 4.99998,0 9.05033,-4.04526 9.05033,-9.04085 l -0.3281,0" />
      <path
         id="path3474"
         style="fill:#764c46;fill-opacity:1;fill-rule:nonzero;stroke:none"
         d="m 249.91003,439.4353 c 0,2.10027 -1.69823,3.80428 -3.80312,3.80428 -2.10027,0 -3.80543,-1.70401 -3.80543,-3.80428 0,-2.10743 1.70516,-3.8059 3.80543,-3.8059 2.10489,0 3.80312,1.69847 3.80312,3.8059" />
      <path
         id="path3476"
         style="fill:#451a11;fill-opacity:1;fill-rule:nonzero;stroke:none"
         d="m 249.91003,439.4353 -0.32578,0 c 0,0.95402 -0.38586,1.82323 -1.02356,2.45955 -0.62615,0.62269 -1.4926,1.01363 -2.45378,1.01363 -0.95656,0 -1.82762,-0.39094 -2.4584,-1.01363 -0.62846,-0.63632 -1.01663,-1.50553 -1.01663,-2.45955 0,-0.96118 0.38817,-1.82763 1.01663,-2.46579 0.63078,-0.62708 1.50184,-1.0134 2.4584,-1.0134 0.96118,0 1.82763,0.38632 2.45378,1.0134 0.6377,0.63816 1.02356,1.50461 1.02356,2.46579 l 0.65619,0 c 0,-2.28788 -1.85535,-4.13815 -4.13353,-4.13815 -2.28511,0 -4.1266,1.85027 -4.1266,4.13815 0,2.28349 1.84149,4.13099 4.1266,4.13099 2.27818,0 4.13353,-1.8475 4.13353,-4.13099 l -0.33041,0" />
      <path
         id="path3478"
         style="fill:#ffffff;fill-opacity:1;fill-rule:nonzero;stroke:none"
         d="m 247.29452,438.80822 c 0,1.10374 -0.88493,1.99445 -1.98705,1.99445 -1.09057,0 -1.98474,-0.89071 -1.98474,-1.99445 0,-1.09218 0.89417,-1.98843 1.98474,-1.98843 1.10212,0 1.98705,0.89625 1.98705,1.98843" />
      <path
         id="path3480"
         style="fill:#431b1e;fill-opacity:1;fill-rule:nonzero;stroke:none"
         d="m 207.41487,469.43885 c 0,0 -0.14325,-0.28535 -0.41127,-0.79529 -2.52772,-4.88445 -16.00501,-30.48067 -19.6256,-28.40951 -4.02031,2.29435 -23.19304,44.10121 -23.19304,44.10121 0,0 -6.59193,-3.14786 -6.88074,-0.86645 -0.28189,2.29158 2.86967,3.43783 6.3008,3.15179 3.44037,-0.29159 24.04793,-40.65807 24.62557,-43.23477 0.57069,-2.5723 14.60482,26.33906 19.18428,26.05302" />
    </g>
    <text
       transform="matrix(1.0064095,0.00228195,-0.00437074,0.99362141,0,0)"
       id="text3496"
       y="252.03612"
       x="403.0715"
       style="font-size:70.56946564px;font-style:normal;font-variant:normal;font-weight:normal;font-stretch:normal;text-align:start;text-anchor:start;fill:#ffffff;fill-opacity:1;stroke:#8b725e;stroke-width:1.5547514;stroke-opacity:1;font-family:Handwriting -Dakota;-inkscape-font-specification:Handwriting -Dakota"
       xml:space="preserve"><tspan
         style="font-style:normal;font-variant:normal;font-weight:bold;font-stretch:normal;fill:#ffffff;fill-opacity:1;stroke:#8b725e;stroke-width:1.26209795;stroke-opacity:1;font-family:Vademecum;-inkscape-font-specification:Vademecum Bold"
         y="252.03612"
         x="403.0715"
         id="tspan3498"
         sodipodi:role="line">moundz</tspan></text>
  </g>
  <g
     inkscape:groupmode="layer"
     id="layer2"
     inkscape:label="slices"
     style="opacity:0.6;display:none">
    <rect
       inkscape:label="#rect3305"
       y="6.3891854"
       x="309"
       height="70"
       width="225"
       id="logo"
       style="fill:#ffaaaa;fill-opacity:1;stroke:none" />
    <rect
       style="opacity:0.6;fill:#ffaaaa;fill-opacity:1;stroke:none;display:inline"
       id="header-bg"
       width="298"
       height="113"
       x="0"
       y="6.3891854"
       inkscape:label="#rect3305" />
  </g>
</svg>
